<svg width="69" height="69" viewBox="0 0 69 69" fill="none" xmlns="http://www.w3.org/2000/svg">
<g id="auto-mechanic-car-mechanic-car-repair-svgrepo-com 1">
<path id="Vector" d="M42.7574 39.1862L42.7324 56.3026H26.562L26.5371 39.1862L26.5325 36.0247L24.7181 38.6138L19.648 45.8491L19.6413 45.8586L19.6349 45.8682C19.1414 46.6084 18.2517 46.928 17.404 46.928H4.12146C2.62261 46.928 1.8286 45.8367 1.81403 44.6284C1.80676 44.0249 2.00516 43.4581 2.3735 43.0528C2.72672 42.6642 3.29997 42.3528 4.2007 42.3528H15.7137H16.2433L16.5409 41.9148L23.1324 32.2121C24.0446 30.9701 24.9803 30.1053 26.0061 29.5455C27.0297 28.9869 28.2004 28.7005 29.6299 28.7005H39.4796C40.923 28.7005 42.0937 28.966 43.1111 29.51C44.13 30.0548 45.062 30.9146 45.9725 32.2051L52.5961 41.9163L52.8938 42.3528H53.4222H65.0148C65.9236 42.3528 66.4981 42.6653 66.8509 43.0531C67.219 43.4578 67.4174 44.0247 67.4113 44.6304C67.399 45.8545 66.6038 46.928 65.1732 46.928H51.8908C51.0281 46.928 50.1533 46.6263 49.6655 45.8773L49.6562 45.863L49.6465 45.8491L44.5763 38.6138L42.762 36.0247L42.7574 39.1862ZM40.962 19.1184C40.962 22.659 38.109 25.5122 34.5682 25.5122C31.0561 25.5122 28.1989 22.6871 28.1745 19.1153C28.1761 15.5762 31.0285 12.7246 34.5682 12.7246C38.1329 12.7246 40.962 15.5755 40.962 19.1184Z" stroke="#151327" stroke-width="2"/>
<path id="Vector_2" d="M4.24859 32.7666L3.24862 32.7666V33.7666V34.9986C3.24862 35.1283 3.14703 35.2306 3.01659 35.2306C2.88588 35.2306 2.7843 35.128 2.7843 34.9986V33.7666V32.7666H1.7843H1.53906V31.9274C1.94258 32.3156 2.49114 32.554 3.09584 32.554C4.33704 32.554 5.34107 31.55 5.34107 30.3088C5.34107 29.7427 5.13222 29.2259 4.78726 28.8312H11.8442C11.4992 29.2259 11.2904 29.7427 11.2904 30.3088C11.2904 31.55 12.2944 32.554 13.5356 32.554C14.1811 32.554 14.7625 32.2824 15.1719 31.8471V32.7663H14.9134H13.9134V33.7663V34.9983C13.9134 35.128 13.8118 35.2304 13.6814 35.2304C13.606 35.2304 13.5512 35.2027 13.5142 35.1656C13.4771 35.1285 13.4494 35.0738 13.4494 34.9983V33.7663V32.7663L12.4493 32.7663L4.24859 32.7666Z" stroke="#151327" stroke-width="2"/>
<path id="Vector_3" d="M56.244 28.0111L55.9767 27.7662L56.0388 27.6981L56.3003 27.9378L58.8865 30.3075L59.6202 30.9798L60.2961 30.2494L62.1879 28.2047L62.8236 27.5177L62.2262 28.2233L60.398 30.3828L59.7762 31.1172L60.4862 31.7668L63.3271 34.3656L63.5878 34.6042L63.5154 34.6832L63.2586 34.4388L62.8637 34.0631L62.8564 34.0562L62.8489 34.0493L60.4857 31.8899L59.7449 31.213L59.0706 31.956L55.0702 36.3639L55.0379 36.3995L55.0092 36.438C54.9279 36.5471 54.8333 36.5837 54.7596 36.5837C54.6111 36.5837 54.4919 36.4646 54.4919 36.3161C54.4919 36.2088 54.5274 36.1543 54.5701 36.1183L54.6093 36.0852L54.6449 36.0483L58.7981 31.7423L59.5103 31.0039L58.7538 30.3108L56.244 28.0111ZM61.2837 23.523L67.0504 28.5973L65.8038 30.0175L63.6507 28.1193L62.8854 27.4447L62.881 27.4499L62.1148 26.7751L60.0359 24.9443L61.2837 23.523Z" stroke="#151327" stroke-width="2"/>
</g>
</svg>
