<svg width="58" height="39" viewBox="0 0 58 39" fill="none" xmlns="http://www.w3.org/2000/svg">
<g id="computer">
<path id="Vector" d="M31.7697 38.0001L33.4611 29.5958" stroke="#151327" stroke-width="2" stroke-miterlimit="10"/>
<path id="Vector_2" d="M26.7303 38H50.2694" stroke="#151327" stroke-width="2" stroke-miterlimit="10"/>
<path id="Vector_3" d="M53.6348 1H23.3652C21.5067 1 20 2.50667 20 4.36524V26.2305C20 28.089 21.5067 29.5957 23.3652 29.5957H53.6348C55.4933 29.5957 57 28.089 57 26.2305V4.36524C57 2.50667 55.4933 1 53.6348 1Z" stroke="#151327" stroke-width="2" stroke-miterlimit="10"/>
<path id="Vector_4" d="M45.1072 38.0001L43.4333 29.5958" stroke="#151327" stroke-width="2" stroke-miterlimit="10"/>
<path id="Vector_5" d="M20 22.8651H57" stroke="#151327" stroke-width="2" stroke-miterlimit="10"/>
<g id="Vector 2">
<path d="M2.76325 28.661C2.22898 28.9667 1.47041 29.9861 0.858904 30.9802C0.446328 31.6509 1.01104 32.4105 1.78614 32.2716C5.04489 31.6873 10.2694 30.6573 12.0225 30.3898C14.4562 30.0185 17.1726 30.325 17.6281 30.3814C17.6732 30.3869 17.7141 30.3953 17.7579 30.4074C18.8687 30.7156 34.2761 34.986 40.4969 36.4847C41.3832 36.6982 41.7407 35.9229 41.0143 35.3721C39.3342 34.0982 37.6243 32.9736 37.522 32.8305C37.3765 32.6271 16.5795 23.0678 14.6404 23.1695C12.7012 23.2712 3.82976 28.0508 2.76325 28.661Z" fill="#353061"/>
<path d="M33.0317 16.4969C27.3163 17.6918 21.3808 20.0133 17.9514 21.564C17.2727 21.8708 17.2228 22.7238 17.8843 23.066C20.4276 24.3817 25.2312 26.4425 25.8873 26.1186C26.5856 25.774 30.1727 21.9612 33.8765 18.0829C34.532 17.3965 33.9607 16.3027 33.0317 16.4969Z" fill="#353061"/>
<path d="M2.76325 28.661C2.22898 28.9667 1.47041 29.9861 0.858904 30.9802C0.446328 31.6509 1.01104 32.4105 1.78614 32.2716C5.04489 31.6873 10.2694 30.6573 12.0225 30.3898C14.4562 30.0185 17.1726 30.325 17.6281 30.3814C17.6732 30.3869 17.7141 30.3953 17.7579 30.4074C18.8687 30.7156 34.2761 34.986 40.4969 36.4847C41.3832 36.6982 41.7407 35.9229 41.0143 35.3721C39.3342 34.0982 37.6243 32.9736 37.522 32.8305C37.3765 32.6271 16.5795 23.0678 14.6404 23.1695C12.7012 23.2712 3.82976 28.0508 2.76325 28.661Z" stroke="#E1E0EC"/>
<path d="M33.0317 16.4969C27.3163 17.6918 21.3808 20.0133 17.9514 21.564C17.2727 21.8708 17.2228 22.7238 17.8843 23.066C20.4276 24.3817 25.2312 26.4425 25.8873 26.1186C26.5856 25.774 30.1727 21.9612 33.8765 18.0829C34.532 17.3965 33.9607 16.3027 33.0317 16.4969Z" stroke="#E1E0EC"/>
</g>
</g>
</svg>
