<svg width="864" height="878" viewBox="0 0 864 878" fill="none" xmlns="http://www.w3.org/2000/svg">
<g opacity="0.55" filter="url(#filter0_d_28_62)">
<path d="M119.5 267C121.5 265 156.333 234.167 173.5 219C173.828 218.672 175.449 215.209 179.317 204.029C179.438 203.681 179.59 203.332 179.763 203.007C234.484 100.518 292.035 43.6416 314 28C314.821 27.5072 319.367 26.5286 330.988 26.5006C331.325 26.4998 331.663 26.4762 331.997 26.4277C517.796 -0.533878 767.863 15.0164 871.421 26.3266C872.498 26.4442 873.474 26.8051 874.385 27.3913L1168.79 216.933C1170.79 218.221 1172 220.438 1172 222.819V809C1172 812.866 1168.89 816 1165.02 815.995C1084.94 815.882 878.816 813.875 637 806.5C354.108 797.872 148.33 813.163 112.92 815.67C109.716 815.896 106.823 813.872 106.012 810.764C104.69 805.701 102.554 798.754 99.5 798.5C70.745 796.23 48.6705 787.816 39.8775 783.245C38.9575 782.767 38.1916 782.066 37.6033 781.212C32.1528 773.301 22.1471 757.332 19.5 747.5C16.7594 737.321 13.1566 717.05 11.5984 707.599C11.5319 707.196 11.5027 706.794 11.508 706.385L14 514C14.4857 500.4 16.1983 471.228 19.2293 460.406C19.3993 459.799 19.509 459.187 19.5532 458.559C20.3453 447.293 27.802 407.744 31.7579 387.723C31.9197 386.904 32.2242 386.136 32.662 385.426L54.2022 350.483C54.4004 350.162 54.5686 349.833 54.7127 349.484C59.2759 338.422 68.4724 316.753 71.6385 311.558C71.8725 311.175 72.0913 310.791 72.279 310.383C84.5029 283.779 117.019 269.481 119.5 267Z" stroke="white" stroke-width="2" shape-rendering="crispEdges"/>
</g>
<g filter="url(#filter1_di_28_62)">
<path fill-rule="evenodd" clip-rule="evenodd" d="M82.3882 340.253L76.047 337.288C75.5467 337.054 74.9515 337.27 74.7176 337.771L68.7882 350.453C68.5543 350.953 68.7703 351.548 69.2706 351.782L75.6117 354.747C95.552 364.07 130.861 375.148 167.371 385.165C204.058 395.231 242.61 404.4 269.408 409.84L270.098 409.98C270.163 409.993 270.23 410 270.297 410H271H271.033H271.065H271.098H271.131H271.163H271.196H271.228H271.26H271.293H271.325H271.357H271.389H271.421H271.453H271.485H271.517H271.548H271.58H271.612H271.643H271.675H271.706H271.738H271.769H271.8H271.831H271.862H271.893H271.924H271.955H271.986H272.017H272.048H272.078H272.109H272.139H272.17H272.2H272.231H272.261H272.291H272.321H272.352H272.382H272.412H272.442H272.471H272.501H272.531H272.561H272.59H272.62H272.649H272.679H272.708H272.738H272.767H272.796H272.825H272.854H272.883H272.912H272.941H272.97H272.999H273.028H273.056H273.085H273.113H273.142H273.17H273.199H273.227H273.255H273.284H273.312H273.34H273.368H273.396H273.424H273.452H273.479H273.507H273.535H273.563H273.59H273.618H273.645H273.673H273.7H273.727H273.754H273.782H273.809H273.836H273.863H273.89H273.917H273.943H273.97H273.997H274.024H274.05H274.077H274.103H274.13H274.156H274.183H274.209H274.235H274.261H274.288H274.314H274.34H274.366H274.392H274.417H274.443H274.469H274.495H274.52H274.546H274.571H274.597H274.622H274.648H274.673H274.698H274.724H274.749H274.774H274.799H274.824H274.849H274.874H274.899H274.924H274.948H274.973H274.998H275.022H275.047H275.071H275.096H275.12H275.145H275.169H275.193H275.217H275.242H275.266H275.29H275.314H275.338H275.362H275.385H275.409H275.433H275.457H275.48H275.504H275.527H275.551H275.574H275.598H275.621H275.645H275.668H275.691H275.714H275.737H275.76H275.783H275.806H275.829H275.852H275.875H275.898H275.921H275.943H275.966H275.988H276.011H276.034H276.056H276.078H276.101H276.123H276.145H276.168H276.19H276.212H276.234H276.256H276.278H276.3H276.322H276.344H276.366H276.387H276.409H276.431H276.452H276.474H276.495H276.517H276.538H276.56H276.581H276.603H276.624H276.645H276.666H276.687H276.708H276.73H276.751H276.772H276.792H276.813H276.834H276.855H276.876H276.896H276.917H276.938H276.958H276.979H276.999H277.02H277.04H277.061H277.081H277.101H277.122H277.142H277.162H277.182H277.202H277.222H277.242H277.262H277.282H277.302H277.322H277.342H277.361H277.381H277.401H277.42H277.44H277.46H277.479H277.499H277.518H277.537H277.557H277.576H277.595H277.615H277.634H277.653H277.672H277.691H277.71H277.729H277.748H277.767H277.786H277.805H277.824H277.843H277.861H277.88H277.899H277.917H277.936H277.955H277.973H277.992H278.01H278.028H278.047H278.065H278.084H278.102H278.12H278.138H278.156H278.175H278.193H278.211H278.229H278.247H278.265H278.283H278.3H278.318H278.336H278.354H278.372H278.389H278.407H278.425H278.442H278.46H278.477H278.495H278.512H278.53H278.547H278.564H278.582H278.599H278.616H278.634H278.651H278.668H278.685H278.702H278.719H278.736H278.753H278.77H278.787H278.804H278.821H278.838H278.855H278.871H278.888H278.905H278.921H278.938H278.955H278.971H278.988H279.004H279.021H279.037H279.054H279.07H279.087H279.103H279.119H279.135H279.152H279.168H279.184H279.2H279.216H279.233H279.249H279.265H279.281H279.297H279.313H279.329H279.344H279.36H279.376H279.392H279.408H279.423H279.439H279.455H279.471H279.486H279.502H279.517H279.533H279.548H279.564H279.579H279.595H279.61H279.626H279.641H279.656H279.672H279.687H279.702H279.718H279.733H279.748H279.763H279.778H279.793H279.808H279.824H279.839H279.854H279.869H279.883H279.898H279.913H279.928H279.943H279.958H279.973H279.987H280.002H280.017H280.032H280.046H280.061H280.076H280.09H280.105H280.119H280.134H280.148H280.163H280.177H280.192H280.206H280.221H280.235H280.249H280.264H280.278H280.292H280.307H280.321H280.335H280.349H280.363H280.378H280.392H280.406H280.42H280.434H280.448H280.462H280.476H280.49H280.504H280.518H280.532H280.546H280.56H280.574H280.587H280.601H280.615H280.629H280.643H280.656H280.67H280.684H280.698H280.711H280.725H280.738H280.752H280.766H280.779H280.793H280.806H280.82H280.833H280.847H280.86H280.874H280.887H280.901H280.914H280.927H280.941H280.954H280.967H280.981H280.994H281.007H281.02H281.034H281.047H281.06H281.073H281.087H281.1H281.113H281.126H281.139H281.152H281.165H281.178H281.191H281.204H281.217H281.23H281.243H281.256H281.269H281.282H281.295H281.308H281.321H281.334H281.347H281.36H281.372H281.385H281.398H281.411H281.424H281.436H281.449H281.462H281.475H281.487H281.5H288.5C289.052 410 289.5 409.552 289.5 409V395C289.5 394.448 289.052 394 288.5 394H281.5H281.487H281.475H281.462H281.449H281.436H281.424H281.411H281.398H281.385H281.372H281.36H281.347H281.334H281.321H281.308H281.295H281.282H281.269H281.256H281.243H281.23H281.217H281.204H281.191H281.178H281.165H281.152H281.139H281.126H281.113H281.1H281.087H281.073H281.06H281.047H281.034H281.02H281.007H280.994H280.981H280.967H280.954H280.941H280.927H280.914H280.901H280.887H280.874H280.86H280.847H280.833H280.82H280.806H280.793H280.779H280.766H280.752H280.738H280.725H280.711H280.698H280.684H280.67H280.656H280.643H280.629H280.615H280.601H280.587H280.574H280.56H280.546H280.532H280.518H280.504H280.49H280.476H280.462H280.448H280.434H280.42H280.406H280.392H280.378H280.363H280.349H280.335H280.321H280.307H280.292H280.278H280.264H280.249H280.235H280.221H280.206H280.192H280.177H280.163H280.148H280.134H280.119H280.105H280.09H280.076H280.061H280.046H280.032H280.017H280.002H279.987H279.973H279.958H279.943H279.928H279.913H279.898H279.883H279.869H279.854H279.839H279.824H279.808H279.793H279.778H279.763H279.748H279.733H279.718H279.702H279.687H279.672H279.656H279.641H279.626H279.61H279.595H279.579H279.564H279.548H279.533H279.517H279.502H279.486H279.471H279.455H279.439H279.423H279.408H279.392H279.376H279.36H279.344H279.329H279.313H279.297H279.281H279.265H279.249H279.233H279.216H279.2H279.184H279.168H279.152H279.135H279.119H279.103H279.087H279.07H279.054H279.037H279.021H279.004H278.988H278.971H278.955H278.938H278.921H278.905H278.888H278.871H278.855H278.838H278.821H278.804H278.787H278.77H278.753H278.736H278.719H278.702H278.685H278.668H278.651H278.634H278.616H278.599H278.582H278.564H278.547H278.53H278.512H278.495H278.477H278.46H278.442H278.425H278.407H278.389H278.372H278.354H278.336H278.318H278.3H278.283H278.265H278.247H278.229H278.211H278.193H278.175H278.156H278.138H278.12H278.102H278.084H278.065H278.047H278.028H278.01H277.992H277.973H277.955H277.936H277.917H277.899H277.88H277.861H277.843H277.824H277.805H277.786H277.767H277.748H277.729H277.71H277.691H277.672H277.653H277.634H277.615H277.595H277.576H277.557H277.537H277.518H277.499H277.479H277.46H277.44H277.42H277.401H277.381H277.361H277.342H277.322H277.302H277.282H277.262H277.242H277.222H277.202H277.182H277.162H277.142H277.122H277.101H277.081H277.061H277.04H277.02H276.999H276.979H276.958H276.938H276.917H276.896H276.876H276.855H276.834H276.813H276.792H276.772H276.751H276.73H276.708H276.687H276.666H276.645H276.624H276.603H276.581H276.56H276.538H276.517H276.495H276.474H276.452H276.431H276.409H276.387H276.366H276.344H276.322H276.3H276.278H276.256H276.234H276.212H276.19H276.168H276.145H276.123H276.101H276.078H276.056H276.034H276.011H275.988H275.966H275.943H275.921H275.898H275.875H275.852H275.829H275.806H275.783H275.76H275.737H275.714H275.691H275.668H275.645H275.621H275.598H275.574H275.551H275.527H275.504H275.48H275.457H275.433H275.409H275.385H275.362H275.338H275.314H275.29H275.266H275.242H275.217H275.193H275.169H275.145H275.12H275.096H275.071H275.047H275.022H274.998H274.973H274.948H274.924H274.899H274.874H274.849H274.824H274.799H274.774H274.749H274.724H274.698H274.673H274.648H274.622H274.597H274.571H274.546H274.52H274.495H274.469H274.443H274.417H274.392H274.366H274.34H274.314H274.288H274.261H274.235H274.209H274.183H274.156H274.13H274.103H274.077H274.05H274.024H273.997H273.97H273.943H273.917H273.89H273.863H273.836H273.809H273.782H273.754H273.727H273.7H273.673H273.645H273.618H273.59H273.563H273.535H273.507H273.479H273.452H273.424H273.396H273.368H273.34H273.312H273.284H273.255H273.227H273.199H273.17H273.142H273.113H273.085H273.056H273.028H272.999H272.97H272.941H272.912H272.883H272.854H272.825H272.796H272.767H272.738H272.708H272.679H272.649H272.62H272.59H272.561H272.531H272.501H272.471H272.442H272.412H272.382H272.352H272.321H272.291H272.261H272.231H272.2H272.17H272.139H272.109H272.078H272.048H272.017H271.986H271.955H271.924H271.893H271.862H271.831C271.814 394 271.798 393.998 271.781 393.995C245.412 388.615 207.621 379.617 171.604 369.735C135.039 359.702 100.948 348.93 82.3882 340.253ZM316.072 394L309.073 393.937C308.52 393.932 308.069 394.376 308.064 394.928L307.937 408.927C307.932 409.48 308.376 409.931 308.928 409.936L315.928 410L592.428 412.5L592.464 412.5H592.5H874H881C881.552 412.5 882 412.052 882 411.5V397.5C882 396.948 881.552 396.5 881 396.5H874H592.536H592.5L316.072 394Z" fill="url(#paint0_linear_28_62)" shape-rendering="crispEdges"/>
<path d="M82.3882 340.253L81.7529 341.612L82.3882 340.253ZM75.6117 354.747L76.247 353.388L75.6117 354.747ZM167.371 385.165L167.768 383.718L167.371 385.165ZM269.408 409.84L269.707 408.37L269.408 409.84ZM171.604 369.735L172.001 368.289L171.604 369.735ZM316.072 394L316.086 392.5L316.072 394ZM315.928 410L315.941 408.5L315.928 410ZM592.428 412.5L592.441 411H592.441L592.428 412.5ZM592.464 412.5L592.45 414H592.464V412.5ZM592.5 396.5L592.486 398H592.5V396.5ZM307.937 408.927L309.437 408.941L307.937 408.927ZM308.928 409.936L308.914 411.436L308.928 409.936ZM309.073 393.937L309.059 395.437L309.073 393.937ZM308.064 394.928L306.564 394.914L308.064 394.928ZM271.781 393.995L271.481 395.465L271.781 393.995ZM270.098 409.98L270.396 408.51L270.098 409.98ZM69.2706 351.782L68.6353 353.141L69.2706 351.782ZM75.4117 338.647L81.7529 341.612L83.0235 338.894L76.6823 335.929L75.4117 338.647ZM70.147 351.088L76.0764 338.406L73.3588 337.135L67.4294 349.818L70.147 351.088ZM76.247 353.388L69.9059 350.423L68.6353 353.141L74.9764 356.106L76.247 353.388ZM167.768 383.718C131.253 373.7 96.0579 362.65 76.247 353.388L74.9764 356.106C95.0461 365.489 130.47 376.596 166.974 386.611L167.768 383.718ZM269.707 408.37C242.945 402.937 204.427 393.777 167.768 383.718L166.974 386.611C203.69 396.685 242.274 405.862 269.11 411.31L269.707 408.37ZM270.396 408.51L269.707 408.37L269.11 411.31L269.799 411.45L270.396 408.51ZM271 408.5H270.297V411.5H271V408.5ZM271.033 408.5H271V411.5H271.033V408.5ZM271.065 408.5H271.033V411.5H271.065V408.5ZM271.098 408.5H271.065V411.5H271.098V408.5ZM271.131 408.5H271.098V411.5H271.131V408.5ZM271.163 408.5H271.131V411.5H271.163V408.5ZM271.196 408.5H271.163V411.5H271.196V408.5ZM271.228 408.5H271.196V411.5H271.228V408.5ZM271.26 408.5H271.228V411.5H271.26V408.5ZM271.293 408.5H271.26V411.5H271.293V408.5ZM271.325 408.5H271.293V411.5H271.325V408.5ZM271.357 408.5H271.325V411.5H271.357V408.5ZM271.389 408.5H271.357V411.5H271.389V408.5ZM271.421 408.5H271.389V411.5H271.421V408.5ZM271.453 408.5H271.421V411.5H271.453V408.5ZM271.485 408.5H271.453V411.5H271.485V408.5ZM271.517 408.5H271.485V411.5H271.517V408.5ZM271.548 408.5H271.517V411.5H271.548V408.5ZM271.58 408.5H271.548V411.5H271.58V408.5ZM271.612 408.5H271.58V411.5H271.612V408.5ZM271.643 408.5H271.612V411.5H271.643V408.5ZM271.675 408.5H271.643V411.5H271.675V408.5ZM271.706 408.5H271.675V411.5H271.706V408.5ZM271.738 408.5H271.706V411.5H271.738V408.5ZM271.769 408.5H271.738V411.5H271.769V408.5ZM271.8 408.5H271.769V411.5H271.8V408.5ZM271.831 408.5H271.8V411.5H271.831V408.5ZM271.862 408.5H271.831V411.5H271.862V408.5ZM271.893 408.5H271.862V411.5H271.893V408.5ZM271.924 408.5H271.893V411.5H271.924V408.5ZM271.955 408.5H271.924V411.5H271.955V408.5ZM271.986 408.5H271.955V411.5H271.986V408.5ZM272.017 408.5H271.986V411.5H272.017V408.5ZM272.048 408.5H272.017V411.5H272.048V408.5ZM272.078 408.5H272.048V411.5H272.078V408.5ZM272.109 408.5H272.078V411.5H272.109V408.5ZM272.139 408.5H272.109V411.5H272.139V408.5ZM272.17 408.5H272.139V411.5H272.17V408.5ZM272.2 408.5H272.17V411.5H272.2V408.5ZM272.231 408.5H272.2V411.5H272.231V408.5ZM272.261 408.5H272.231V411.5H272.261V408.5ZM272.291 408.5H272.261V411.5H272.291V408.5ZM272.321 408.5H272.291V411.5H272.321V408.5ZM272.352 408.5H272.321V411.5H272.352V408.5ZM272.382 408.5H272.352V411.5H272.382V408.5ZM272.412 408.5H272.382V411.5H272.412V408.5ZM272.442 408.5H272.412V411.5H272.442V408.5ZM272.471 408.5H272.442V411.5H272.471V408.5ZM272.501 408.5H272.471V411.5H272.501V408.5ZM272.531 408.5H272.501V411.5H272.531V408.5ZM272.561 408.5H272.531V411.5H272.561V408.5ZM272.59 408.5H272.561V411.5H272.59V408.5ZM272.62 408.5H272.59V411.5H272.62V408.5ZM272.649 408.5H272.62V411.5H272.649V408.5ZM272.679 408.5H272.649V411.5H272.679V408.5ZM272.708 408.5H272.679V411.5H272.708V408.5ZM272.738 408.5H272.708V411.5H272.738V408.5ZM272.767 408.5H272.738V411.5H272.767V408.5ZM272.796 408.5H272.767V411.5H272.796V408.5ZM272.825 408.5H272.796V411.5H272.825V408.5ZM272.854 408.5H272.825V411.5H272.854V408.5ZM272.883 408.5H272.854V411.5H272.883V408.5ZM272.912 408.5H272.883V411.5H272.912V408.5ZM272.941 408.5H272.912V411.5H272.941V408.5ZM272.97 408.5H272.941V411.5H272.97V408.5ZM272.999 408.5H272.97V411.5H272.999V408.5ZM273.028 408.5H272.999V411.5H273.028V408.5ZM273.056 408.5H273.028V411.5H273.056V408.5ZM273.085 408.5H273.056V411.5H273.085V408.5ZM273.113 408.5H273.085V411.5H273.113V408.5ZM273.142 408.5H273.113V411.5H273.142V408.5ZM273.17 408.5H273.142V411.5H273.17V408.5ZM273.199 408.5H273.17V411.5H273.199V408.5ZM273.227 408.5H273.199V411.5H273.227V408.5ZM273.255 408.5H273.227V411.5H273.255V408.5ZM273.284 408.5H273.255V411.5H273.284V408.5ZM273.312 408.5H273.284V411.5H273.312V408.5ZM273.34 408.5H273.312V411.5H273.34V408.5ZM273.368 408.5H273.34V411.5H273.368V408.5ZM273.396 408.5H273.368V411.5H273.396V408.5ZM273.424 408.5H273.396V411.5H273.424V408.5ZM273.452 408.5H273.424V411.5H273.452V408.5ZM273.479 408.5H273.452V411.5H273.479V408.5ZM273.507 408.5H273.479V411.5H273.507V408.5ZM273.535 408.5H273.507V411.5H273.535V408.5ZM273.563 408.5H273.535V411.5H273.563V408.5ZM273.59 408.5H273.563V411.5H273.59V408.5ZM273.618 408.5H273.59V411.5H273.618V408.5ZM273.645 408.5H273.618V411.5H273.645V408.5ZM273.673 408.5H273.645V411.5H273.673V408.5ZM273.7 408.5H273.673V411.5H273.7V408.5ZM273.727 408.5H273.7V411.5H273.727V408.5ZM273.754 408.5H273.727V411.5H273.754V408.5ZM273.782 408.5H273.754V411.5H273.782V408.5ZM273.809 408.5H273.782V411.5H273.809V408.5ZM273.836 408.5H273.809V411.5H273.836V408.5ZM273.863 408.5H273.836V411.5H273.863V408.5ZM273.89 408.5H273.863V411.5H273.89V408.5ZM273.917 408.5H273.89V411.5H273.917V408.5ZM273.943 408.5H273.917V411.5H273.943V408.5ZM273.97 408.5H273.943V411.5H273.97V408.5ZM273.997 408.5H273.97V411.5H273.997V408.5ZM274.024 408.5H273.997V411.5H274.024V408.5ZM274.05 408.5H274.024V411.5H274.05V408.5ZM274.077 408.5H274.05V411.5H274.077V408.5ZM274.103 408.5H274.077V411.5H274.103V408.5ZM274.13 408.5H274.103V411.5H274.13V408.5ZM274.156 408.5H274.13V411.5H274.156V408.5ZM274.183 408.5H274.156V411.5H274.183V408.5ZM274.209 408.5H274.183V411.5H274.209V408.5ZM274.235 408.5H274.209V411.5H274.235V408.5ZM274.261 408.5H274.235V411.5H274.261V408.5ZM274.288 408.5H274.261V411.5H274.288V408.5ZM274.314 408.5H274.288V411.5H274.314V408.5ZM274.34 408.5H274.314V411.5H274.34V408.5ZM274.366 408.5H274.34V411.5H274.366V408.5ZM274.392 408.5H274.366V411.5H274.392V408.5ZM274.417 408.5H274.392V411.5H274.417V408.5ZM274.443 408.5H274.417V411.5H274.443V408.5ZM274.469 408.5H274.443V411.5H274.469V408.5ZM274.495 408.5H274.469V411.5H274.495V408.5ZM274.52 408.5H274.495V411.5H274.52V408.5ZM274.546 408.5H274.52V411.5H274.546V408.5ZM274.571 408.5H274.546V411.5H274.571V408.5ZM274.597 408.5H274.571V411.5H274.597V408.5ZM274.622 408.5H274.597V411.5H274.622V408.5ZM274.648 408.5H274.622V411.5H274.648V408.5ZM274.673 408.5H274.648V411.5H274.673V408.5ZM274.698 408.5H274.673V411.5H274.698V408.5ZM274.724 408.5H274.698V411.5H274.724V408.5ZM274.749 408.5H274.724V411.5H274.749V408.5ZM274.774 408.5H274.749V411.5H274.774V408.5ZM274.799 408.5H274.774V411.5H274.799V408.5ZM274.824 408.5H274.799V411.5H274.824V408.5ZM274.849 408.5H274.824V411.5H274.849V408.5ZM274.874 408.5H274.849V411.5H274.874V408.5ZM274.899 408.5H274.874V411.5H274.899V408.5ZM274.924 408.5H274.899V411.5H274.924V408.5ZM274.948 408.5H274.924V411.5H274.948V408.5ZM274.973 408.5H274.948V411.5H274.973V408.5ZM274.998 408.5H274.973V411.5H274.998V408.5ZM275.022 408.5H274.998V411.5H275.022V408.5ZM275.047 408.5H275.022V411.5H275.047V408.5ZM275.071 408.5H275.047V411.5H275.071V408.5ZM275.096 408.5H275.071V411.5H275.096V408.5ZM275.12 408.5H275.096V411.5H275.12V408.5ZM275.145 408.5H275.12V411.5H275.145V408.5ZM275.169 408.5H275.145V411.5H275.169V408.5ZM275.193 408.5H275.169V411.5H275.193V408.5ZM275.217 408.5H275.193V411.5H275.217V408.5ZM275.242 408.5H275.217V411.5H275.242V408.5ZM275.266 408.5H275.242V411.5H275.266V408.5ZM275.29 408.5H275.266V411.5H275.29V408.5ZM275.314 408.5H275.29V411.5H275.314V408.5ZM275.338 408.5H275.314V411.5H275.338V408.5ZM275.362 408.5H275.338V411.5H275.362V408.5ZM275.385 408.5H275.362V411.5H275.385V408.5ZM275.409 408.5H275.385V411.5H275.409V408.5ZM275.433 408.5H275.409V411.5H275.433V408.5ZM275.457 408.5H275.433V411.5H275.457V408.5ZM275.48 408.5H275.457V411.5H275.48V408.5ZM275.504 408.5H275.48V411.5H275.504V408.5ZM275.527 408.5H275.504V411.5H275.527V408.5ZM275.551 408.5H275.527V411.5H275.551V408.5ZM275.574 408.5H275.551V411.5H275.574V408.5ZM275.598 408.5H275.574V411.5H275.598V408.5ZM275.621 408.5H275.598V411.5H275.621V408.5ZM275.645 408.5H275.621V411.5H275.645V408.5ZM275.668 408.5H275.645V411.5H275.668V408.5ZM275.691 408.5H275.668V411.5H275.691V408.5ZM275.714 408.5H275.691V411.5H275.714V408.5ZM275.737 408.5H275.714V411.5H275.737V408.5ZM275.76 408.5H275.737V411.5H275.76V408.5ZM275.783 408.5H275.76V411.5H275.783V408.5ZM275.806 408.5H275.783V411.5H275.806V408.5ZM275.829 408.5H275.806V411.5H275.829V408.5ZM275.852 408.5H275.829V411.5H275.852V408.5ZM275.875 408.5H275.852V411.5H275.875V408.5ZM275.898 408.5H275.875V411.5H275.898V408.5ZM275.921 408.5H275.898V411.5H275.921V408.5ZM275.943 408.5H275.921V411.5H275.943V408.5ZM275.966 408.5H275.943V411.5H275.966V408.5ZM275.988 408.5H275.966V411.5H275.988V408.5ZM276.011 408.5H275.988V411.5H276.011V408.5ZM276.034 408.5H276.011V411.5H276.034V408.5ZM276.056 408.5H276.034V411.5H276.056V408.5ZM276.078 408.5H276.056V411.5H276.078V408.5ZM276.101 408.5H276.078V411.5H276.101V408.5ZM276.123 408.5H276.101V411.5H276.123V408.5ZM276.145 408.5H276.123V411.5H276.145V408.5ZM276.168 408.5H276.145V411.5H276.168V408.5ZM276.19 408.5H276.168V411.5H276.19V408.5ZM276.212 408.5H276.19V411.5H276.212V408.5ZM276.234 408.5H276.212V411.5H276.234V408.5ZM276.256 408.5H276.234V411.5H276.256V408.5ZM276.278 408.5H276.256V411.5H276.278V408.5ZM276.3 408.5H276.278V411.5H276.3V408.5ZM276.322 408.5H276.3V411.5H276.322V408.5ZM276.344 408.5H276.322V411.5H276.344V408.5ZM276.366 408.5H276.344V411.5H276.366V408.5ZM276.387 408.5H276.366V411.5H276.387V408.5ZM276.409 408.5H276.387V411.5H276.409V408.5ZM276.431 408.5H276.409V411.5H276.431V408.5ZM276.452 408.5H276.431V411.5H276.452V408.5ZM276.474 408.5H276.452V411.5H276.474V408.5ZM276.495 408.5H276.474V411.5H276.495V408.5ZM276.517 408.5H276.495V411.5H276.517V408.5ZM276.538 408.5H276.517V411.5H276.538V408.5ZM276.56 408.5H276.538V411.5H276.56V408.5ZM276.581 408.5H276.56V411.5H276.581V408.5ZM276.603 408.5H276.581V411.5H276.603V408.5ZM276.624 408.5H276.603V411.5H276.624V408.5ZM276.645 408.5H276.624V411.5H276.645V408.5ZM276.666 408.5H276.645V411.5H276.666V408.5ZM276.687 408.5H276.666V411.5H276.687V408.5ZM276.708 408.5H276.687V411.5H276.708V408.5ZM276.73 408.5H276.708V411.5H276.73V408.5ZM276.751 408.5H276.73V411.5H276.751V408.5ZM276.772 408.5H276.751V411.5H276.772V408.5ZM276.792 408.5H276.772V411.5H276.792V408.5ZM276.813 408.5H276.792V411.5H276.813V408.5ZM276.834 408.5H276.813V411.5H276.834V408.5ZM276.855 408.5H276.834V411.5H276.855V408.5ZM276.876 408.5H276.855V411.5H276.876V408.5ZM276.896 408.5H276.876V411.5H276.896V408.5ZM276.917 408.5H276.896V411.5H276.917V408.5ZM276.938 408.5H276.917V411.5H276.938V408.5ZM276.958 408.5H276.938V411.5H276.958V408.5ZM276.979 408.5H276.958V411.5H276.979V408.5ZM276.999 408.5H276.979V411.5H276.999V408.5ZM277.02 408.5H276.999V411.5H277.02V408.5ZM277.04 408.5H277.02V411.5H277.04V408.5ZM277.061 408.5H277.04V411.5H277.061V408.5ZM277.081 408.5H277.061V411.5H277.081V408.5ZM277.101 408.5H277.081V411.5H277.101V408.5ZM277.122 408.5H277.101V411.5H277.122V408.5ZM277.142 408.5H277.122V411.5H277.142V408.5ZM277.162 408.5H277.142V411.5H277.162V408.5ZM277.182 408.5H277.162V411.5H277.182V408.5ZM277.202 408.5H277.182V411.5H277.202V408.5ZM277.222 408.5H277.202V411.5H277.222V408.5ZM277.242 408.5H277.222V411.5H277.242V408.5ZM277.262 408.5H277.242V411.5H277.262V408.5ZM277.282 408.5H277.262V411.5H277.282V408.5ZM277.302 408.5H277.282V411.5H277.302V408.5ZM277.322 408.5H277.302V411.5H277.322V408.5ZM277.342 408.5H277.322V411.5H277.342V408.5ZM277.361 408.5H277.342V411.5H277.361V408.5ZM277.381 408.5H277.361V411.5H277.381V408.5ZM277.401 408.5H277.381V411.5H277.401V408.5ZM277.42 408.5H277.401V411.5H277.42V408.5ZM277.44 408.5H277.42V411.5H277.44V408.5ZM277.46 408.5H277.44V411.5H277.46V408.5ZM277.479 408.5H277.46V411.5H277.479V408.5ZM277.499 408.5H277.479V411.5H277.499V408.5ZM277.518 408.5H277.499V411.5H277.518V408.5ZM277.537 408.5H277.518V411.5H277.537V408.5ZM277.557 408.5H277.537V411.5H277.557V408.5ZM277.576 408.5H277.557V411.5H277.576V408.5ZM277.595 408.5H277.576V411.5H277.595V408.5ZM277.615 408.5H277.595V411.5H277.615V408.5ZM277.634 408.5H277.615V411.5H277.634V408.5ZM277.653 408.5H277.634V411.5H277.653V408.5ZM277.672 408.5H277.653V411.5H277.672V408.5ZM277.691 408.5H277.672V411.5H277.691V408.5ZM277.71 408.5H277.691V411.5H277.71V408.5ZM277.729 408.5H277.71V411.5H277.729V408.5ZM277.748 408.5H277.729V411.5H277.748V408.5ZM277.767 408.5H277.748V411.5H277.767V408.5ZM277.786 408.5H277.767V411.5H277.786V408.5ZM277.805 408.5H277.786V411.5H277.805V408.5ZM277.824 408.5H277.805V411.5H277.824V408.5ZM277.843 408.5H277.824V411.5H277.843V408.5ZM277.861 408.5H277.843V411.5H277.861V408.5ZM277.88 408.5H277.861V411.5H277.88V408.5ZM277.899 408.5H277.88V411.5H277.899V408.5ZM277.917 408.5H277.899V411.5H277.917V408.5ZM277.936 408.5H277.917V411.5H277.936V408.5ZM277.955 408.5H277.936V411.5H277.955V408.5ZM277.973 408.5H277.955V411.5H277.973V408.5ZM277.992 408.5H277.973V411.5H277.992V408.5ZM278.01 408.5H277.992V411.5H278.01V408.5ZM278.028 408.5H278.01V411.5H278.028V408.5ZM278.047 408.5H278.028V411.5H278.047V408.5ZM278.065 408.5H278.047V411.5H278.065V408.5ZM278.084 408.5H278.065V411.5H278.084V408.5ZM278.102 408.5H278.084V411.5H278.102V408.5ZM278.12 408.5H278.102V411.5H278.12V408.5ZM278.138 408.5H278.12V411.5H278.138V408.5ZM278.156 408.5H278.138V411.5H278.156V408.5ZM278.175 408.5H278.156V411.5H278.175V408.5ZM278.193 408.5H278.175V411.5H278.193V408.5ZM278.211 408.5H278.193V411.5H278.211V408.5ZM278.229 408.5H278.211V411.5H278.229V408.5ZM278.247 408.5H278.229V411.5H278.247V408.5ZM278.265 408.5H278.247V411.5H278.265V408.5ZM278.283 408.5H278.265V411.5H278.283V408.5ZM278.3 408.5H278.283V411.5H278.3V408.5ZM278.318 408.5H278.3V411.5H278.318V408.5ZM278.336 408.5H278.318V411.5H278.336V408.5ZM278.354 408.5H278.336V411.5H278.354V408.5ZM278.372 408.5H278.354V411.5H278.372V408.5ZM278.389 408.5H278.372V411.5H278.389V408.5ZM278.407 408.5H278.389V411.5H278.407V408.5ZM278.425 408.5H278.407V411.5H278.425V408.5ZM278.442 408.5H278.425V411.5H278.442V408.5ZM278.46 408.5H278.442V411.5H278.46V408.5ZM278.477 408.5H278.46V411.5H278.477V408.5ZM278.495 408.5H278.477V411.5H278.495V408.5ZM278.512 408.5H278.495V411.5H278.512V408.5ZM278.53 408.5H278.512V411.5H278.53V408.5ZM278.547 408.5H278.53V411.5H278.547V408.5ZM278.564 408.5H278.547V411.5H278.564V408.5ZM278.582 408.5H278.564V411.5H278.582V408.5ZM278.599 408.5H278.582V411.5H278.599V408.5ZM278.616 408.5H278.599V411.5H278.616V408.5ZM278.634 408.5H278.616V411.5H278.634V408.5ZM278.651 408.5H278.634V411.5H278.651V408.5ZM278.668 408.5H278.651V411.5H278.668V408.5ZM278.685 408.5H278.668V411.5H278.685V408.5ZM278.702 408.5H278.685V411.5H278.702V408.5ZM278.719 408.5H278.702V411.5H278.719V408.5ZM278.736 408.5H278.719V411.5H278.736V408.5ZM278.753 408.5H278.736V411.5H278.753V408.5ZM278.77 408.5H278.753V411.5H278.77V408.5ZM278.787 408.5H278.77V411.5H278.787V408.5ZM278.804 408.5H278.787V411.5H278.804V408.5ZM278.821 408.5H278.804V411.5H278.821V408.5ZM278.838 408.5H278.821V411.5H278.838V408.5ZM278.855 408.5H278.838V411.5H278.855V408.5ZM278.871 408.5H278.855V411.5H278.871V408.5ZM278.888 408.5H278.871V411.5H278.888V408.5ZM278.905 408.5H278.888V411.5H278.905V408.5ZM278.921 408.5H278.905V411.5H278.921V408.5ZM278.938 408.5H278.921V411.5H278.938V408.5ZM278.955 408.5H278.938V411.5H278.955V408.5ZM278.971 408.5H278.955V411.5H278.971V408.5ZM278.988 408.5H278.971V411.5H278.988V408.5ZM279.004 408.5H278.988V411.5H279.004V408.5ZM279.021 408.5H279.004V411.5H279.021V408.5ZM279.037 408.5H279.021V411.5H279.037V408.5ZM279.054 408.5H279.037V411.5H279.054V408.5ZM279.07 408.5H279.054V411.5H279.07V408.5ZM279.087 408.5H279.07V411.5H279.087V408.5ZM279.103 408.5H279.087V411.5H279.103V408.5ZM279.119 408.5H279.103V411.5H279.119V408.5ZM279.135 408.5H279.119V411.5H279.135V408.5ZM279.152 408.5H279.135V411.5H279.152V408.5ZM279.168 408.5H279.152V411.5H279.168V408.5ZM279.184 408.5H279.168V411.5H279.184V408.5ZM279.2 408.5H279.184V411.5H279.2V408.5ZM279.216 408.5H279.2V411.5H279.216V408.5ZM279.233 408.5H279.216V411.5H279.233V408.5ZM279.249 408.5H279.233V411.5H279.249V408.5ZM279.265 408.5H279.249V411.5H279.265V408.5ZM279.281 408.5H279.265V411.5H279.281V408.5ZM279.297 408.5H279.281V411.5H279.297V408.5ZM279.313 408.5H279.297V411.5H279.313V408.5ZM279.329 408.5H279.313V411.5H279.329V408.5ZM279.344 408.5H279.329V411.5H279.344V408.5ZM279.36 408.5H279.344V411.5H279.36V408.5ZM279.376 408.5H279.36V411.5H279.376V408.5ZM279.392 408.5H279.376V411.5H279.392V408.5ZM279.408 408.5H279.392V411.5H279.408V408.5ZM279.423 408.5H279.408V411.5H279.423V408.5ZM279.439 408.5H279.423V411.5H279.439V408.5ZM279.455 408.5H279.439V411.5H279.455V408.5ZM279.471 408.5H279.455V411.5H279.471V408.5ZM279.486 408.5H279.471V411.5H279.486V408.5ZM279.502 408.5H279.486V411.5H279.502V408.5ZM279.517 408.5H279.502V411.5H279.517V408.5ZM279.533 408.5H279.517V411.5H279.533V408.5ZM279.548 408.5H279.533V411.5H279.548V408.5ZM279.564 408.5H279.548V411.5H279.564V408.5ZM279.579 408.5H279.564V411.5H279.579V408.5ZM279.595 408.5H279.579V411.5H279.595V408.5ZM279.61 408.5H279.595V411.5H279.61V408.5ZM279.626 408.5H279.61V411.5H279.626V408.5ZM279.641 408.5H279.626V411.5H279.641V408.5ZM279.656 408.5H279.641V411.5H279.656V408.5ZM279.672 408.5H279.656V411.5H279.672V408.5ZM279.687 408.5H279.672V411.5H279.687V408.5ZM279.702 408.5H279.687V411.5H279.702V408.5ZM279.718 408.5H279.702V411.5H279.718V408.5ZM279.733 408.5H279.718V411.5H279.733V408.5ZM279.748 408.5H279.733V411.5H279.748V408.5ZM279.763 408.5H279.748V411.5H279.763V408.5ZM279.778 408.5H279.763V411.5H279.778V408.5ZM279.793 408.5H279.778V411.5H279.793V408.5ZM279.808 408.5H279.793V411.5H279.808V408.5ZM279.824 408.5H279.808V411.5H279.824V408.5ZM279.839 408.5H279.824V411.5H279.839V408.5ZM279.854 408.5H279.839V411.5H279.854V408.5ZM279.869 408.5H279.854V411.5H279.869V408.5ZM279.883 408.5H279.869V411.5H279.883V408.5ZM279.898 408.5H279.883V411.5H279.898V408.5ZM279.913 408.5H279.898V411.5H279.913V408.5ZM279.928 408.5H279.913V411.5H279.928V408.5ZM279.943 408.5H279.928V411.5H279.943V408.5ZM279.958 408.5H279.943V411.5H279.958V408.5ZM279.973 408.5H279.958V411.5H279.973V408.5ZM279.987 408.5H279.973V411.5H279.987V408.5ZM280.002 408.5H279.987V411.5H280.002V408.5ZM280.017 408.5H280.002V411.5H280.017V408.5ZM280.032 408.5H280.017V411.5H280.032V408.5ZM280.046 408.5H280.032V411.5H280.046V408.5ZM280.061 408.5H280.046V411.5H280.061V408.5ZM280.076 408.5H280.061V411.5H280.076V408.5ZM280.09 408.5H280.076V411.5H280.09V408.5ZM280.105 408.5H280.09V411.5H280.105V408.5ZM280.119 408.5H280.105V411.5H280.119V408.5ZM280.134 408.5H280.119V411.5H280.134V408.5ZM280.148 408.5H280.134V411.5H280.148V408.5ZM280.163 408.5H280.148V411.5H280.163V408.5ZM280.177 408.5H280.163V411.5H280.177V408.5ZM280.192 408.5H280.177V411.5H280.192V408.5ZM280.206 408.5H280.192V411.5H280.206V408.5ZM280.221 408.5H280.206V411.5H280.221V408.5ZM280.235 408.5H280.221V411.5H280.235V408.5ZM280.249 408.5H280.235V411.5H280.249V408.5ZM280.264 408.5H280.249V411.5H280.264V408.5ZM280.278 408.5H280.264V411.5H280.278V408.5ZM280.292 408.5H280.278V411.5H280.292V408.5ZM280.307 408.5H280.292V411.5H280.307V408.5ZM280.321 408.5H280.307V411.5H280.321V408.5ZM280.335 408.5H280.321V411.5H280.335V408.5ZM280.349 408.5H280.335V411.5H280.349V408.5ZM280.363 408.5H280.349V411.5H280.363V408.5ZM280.378 408.5H280.363V411.5H280.378V408.5ZM280.392 408.5H280.378V411.5H280.392V408.5ZM280.406 408.5H280.392V411.5H280.406V408.5ZM280.42 408.5H280.406V411.5H280.42V408.5ZM280.434 408.5H280.42V411.5H280.434V408.5ZM280.448 408.5H280.434V411.5H280.448V408.5ZM280.462 408.5H280.448V411.5H280.462V408.5ZM280.476 408.5H280.462V411.5H280.476V408.5ZM280.49 408.5H280.476V411.5H280.49V408.5ZM280.504 408.5H280.49V411.5H280.504V408.5ZM280.518 408.5H280.504V411.5H280.518V408.5ZM280.532 408.5H280.518V411.5H280.532V408.5ZM280.546 408.5H280.532V411.5H280.546V408.5ZM280.56 408.5H280.546V411.5H280.56V408.5ZM280.574 408.5H280.56V411.5H280.574V408.5ZM280.587 408.5H280.574V411.5H280.587V408.5ZM280.601 408.5H280.587V411.5H280.601V408.5ZM280.615 408.5H280.601V411.5H280.615V408.5ZM280.629 408.5H280.615V411.5H280.629V408.5ZM280.643 408.5H280.629V411.5H280.643V408.5ZM280.656 408.5H280.643V411.5H280.656V408.5ZM280.67 408.5H280.656V411.5H280.67V408.5ZM280.684 408.5H280.67V411.5H280.684V408.5ZM280.698 408.5H280.684V411.5H280.698V408.5ZM280.711 408.5H280.698V411.5H280.711V408.5ZM280.725 408.5H280.711V411.5H280.725V408.5ZM280.738 408.5H280.725V411.5H280.738V408.5ZM280.752 408.5H280.738V411.5H280.752V408.5ZM280.766 408.5H280.752V411.5H280.766V408.5ZM280.779 408.5H280.766V411.5H280.779V408.5ZM280.793 408.5H280.779V411.5H280.793V408.5ZM280.806 408.5H280.793V411.5H280.806V408.5ZM280.82 408.5H280.806V411.5H280.82V408.5ZM280.833 408.5H280.82V411.5H280.833V408.5ZM280.847 408.5H280.833V411.5H280.847V408.5ZM280.86 408.5H280.847V411.5H280.86V408.5ZM280.874 408.5H280.86V411.5H280.874V408.5ZM280.887 408.5H280.874V411.5H280.887V408.5ZM280.901 408.5H280.887V411.5H280.901V408.5ZM280.914 408.5H280.901V411.5H280.914V408.5ZM280.927 408.5H280.914V411.5H280.927V408.5ZM280.941 408.5H280.927V411.5H280.941V408.5ZM280.954 408.5H280.941V411.5H280.954V408.5ZM280.967 408.5H280.954V411.5H280.967V408.5ZM280.981 408.5H280.967V411.5H280.981V408.5ZM280.994 408.5H280.981V411.5H280.994V408.5ZM281.007 408.5H280.994V411.5H281.007V408.5ZM281.02 408.5H281.007V411.5H281.02V408.5ZM281.034 408.5H281.02V411.5H281.034V408.5ZM281.047 408.5H281.034V411.5H281.047V408.5ZM281.06 408.5H281.047V411.5H281.06V408.5ZM281.073 408.5H281.06V411.5H281.073V408.5ZM281.087 408.5H281.073V411.5H281.087V408.5ZM281.1 408.5H281.087V411.5H281.1V408.5ZM281.113 408.5H281.1V411.5H281.113V408.5ZM281.126 408.5H281.113V411.5H281.126V408.5ZM281.139 408.5H281.126V411.5H281.139V408.5ZM281.152 408.5H281.139V411.5H281.152V408.5ZM281.165 408.5H281.152V411.5H281.165V408.5ZM281.178 408.5H281.165V411.5H281.178V408.5ZM281.191 408.5H281.178V411.5H281.191V408.5ZM281.204 408.5H281.191V411.5H281.204V408.5ZM281.217 408.5H281.204V411.5H281.217V408.5ZM281.23 408.5H281.217V411.5H281.23V408.5ZM281.243 408.5H281.23V411.5H281.243V408.5ZM281.256 408.5H281.243V411.5H281.256V408.5ZM281.269 408.5H281.256V411.5H281.269V408.5ZM281.282 408.5H281.269V411.5H281.282V408.5ZM281.295 408.5H281.282V411.5H281.295V408.5ZM281.308 408.5H281.295V411.5H281.308V408.5ZM281.321 408.5H281.308V411.5H281.321V408.5ZM281.334 408.5H281.321V411.5H281.334V408.5ZM281.347 408.5H281.334V411.5H281.347V408.5ZM281.36 408.5H281.347V411.5H281.36V408.5ZM281.372 408.5H281.36V411.5H281.372V408.5ZM281.385 408.5H281.372V411.5H281.385V408.5ZM281.398 408.5H281.385V411.5H281.398V408.5ZM281.411 408.5H281.398V411.5H281.411V408.5ZM281.424 408.5H281.411V411.5H281.424V408.5ZM281.436 408.5H281.424V411.5H281.436V408.5ZM281.449 408.5H281.436V411.5H281.449V408.5ZM281.462 408.5H281.449V411.5H281.462V408.5ZM281.475 408.5H281.462V411.5H281.475V408.5ZM281.487 408.5H281.475V411.5H281.487V408.5ZM281.5 408.5H281.487V411.5H281.5V408.5ZM288.5 408.5H281.5V411.5H288.5V408.5ZM288 395V409H291V395H288ZM281.5 395.5H288.5V392.5H281.5V395.5ZM281.487 395.5H281.5V392.5H281.487V395.5ZM281.475 395.5H281.487V392.5H281.475V395.5ZM281.462 395.5H281.475V392.5H281.462V395.5ZM281.449 395.5H281.462V392.5H281.449V395.5ZM281.436 395.5H281.449V392.5H281.436V395.5ZM281.424 395.5H281.436V392.5H281.424V395.5ZM281.411 395.5H281.424V392.5H281.411V395.5ZM281.398 395.5H281.411V392.5H281.398V395.5ZM281.385 395.5H281.398V392.5H281.385V395.5ZM281.372 395.5H281.385V392.5H281.372V395.5ZM281.36 395.5H281.372V392.5H281.36V395.5ZM281.347 395.5H281.36V392.5H281.347V395.5ZM281.334 395.5H281.347V392.5H281.334V395.5ZM281.321 395.5H281.334V392.5H281.321V395.5ZM281.308 395.5H281.321V392.5H281.308V395.5ZM281.295 395.5H281.308V392.5H281.295V395.5ZM281.282 395.5H281.295V392.5H281.282V395.5ZM281.269 395.5H281.282V392.5H281.269V395.5ZM281.256 395.5H281.269V392.5H281.256V395.5ZM281.243 395.5H281.256V392.5H281.243V395.5ZM281.23 395.5H281.243V392.5H281.23V395.5ZM281.217 395.5H281.23V392.5H281.217V395.5ZM281.204 395.5H281.217V392.5H281.204V395.5ZM281.191 395.5H281.204V392.5H281.191V395.5ZM281.178 395.5H281.191V392.5H281.178V395.5ZM281.165 395.5H281.178V392.5H281.165V395.5ZM281.152 395.5H281.165V392.5H281.152V395.5ZM281.139 395.5H281.152V392.5H281.139V395.5ZM281.126 395.5H281.139V392.5H281.126V395.5ZM281.113 395.5H281.126V392.5H281.113V395.5ZM281.1 395.5H281.113V392.5H281.1V395.5ZM281.087 395.5H281.1V392.5H281.087V395.5ZM281.073 395.5H281.087V392.5H281.073V395.5ZM281.06 395.5H281.073V392.5H281.06V395.5ZM281.047 395.5H281.06V392.5H281.047V395.5ZM281.034 395.5H281.047V392.5H281.034V395.5ZM281.02 395.5H281.034V392.5H281.02V395.5ZM281.007 395.5H281.02V392.5H281.007V395.5ZM280.994 395.5H281.007V392.5H280.994V395.5ZM280.981 395.5H280.994V392.5H280.981V395.5ZM280.967 395.5H280.981V392.5H280.967V395.5ZM280.954 395.5H280.967V392.5H280.954V395.5ZM280.941 395.5H280.954V392.5H280.941V395.5ZM280.927 395.5H280.941V392.5H280.927V395.5ZM280.914 395.5H280.927V392.5H280.914V395.5ZM280.901 395.5H280.914V392.5H280.901V395.5ZM280.887 395.5H280.901V392.5H280.887V395.5ZM280.874 395.5H280.887V392.5H280.874V395.5ZM280.86 395.5H280.874V392.5H280.86V395.5ZM280.847 395.5H280.86V392.5H280.847V395.5ZM280.833 395.5H280.847V392.5H280.833V395.5ZM280.82 395.5H280.833V392.5H280.82V395.5ZM280.806 395.5H280.82V392.5H280.806V395.5ZM280.793 395.5H280.806V392.5H280.793V395.5ZM280.779 395.5H280.793V392.5H280.779V395.5ZM280.766 395.5H280.779V392.5H280.766V395.5ZM280.752 395.5H280.766V392.5H280.752V395.5ZM280.738 395.5H280.752V392.5H280.738V395.5ZM280.725 395.5H280.738V392.5H280.725V395.5ZM280.711 395.5H280.725V392.5H280.711V395.5ZM280.698 395.5H280.711V392.5H280.698V395.5ZM280.684 395.5H280.698V392.5H280.684V395.5ZM280.67 395.5H280.684V392.5H280.67V395.5ZM280.656 395.5H280.67V392.5H280.656V395.5ZM280.643 395.5H280.656V392.5H280.643V395.5ZM280.629 395.5H280.643V392.5H280.629V395.5ZM280.615 395.5H280.629V392.5H280.615V395.5ZM280.601 395.5H280.615V392.5H280.601V395.5ZM280.587 395.5H280.601V392.5H280.587V395.5ZM280.574 395.5H280.587V392.5H280.574V395.5ZM280.56 395.5H280.574V392.5H280.56V395.5ZM280.546 395.5H280.56V392.5H280.546V395.5ZM280.532 395.5H280.546V392.5H280.532V395.5ZM280.518 395.5H280.532V392.5H280.518V395.5ZM280.504 395.5H280.518V392.5H280.504V395.5ZM280.49 395.5H280.504V392.5H280.49V395.5ZM280.476 395.5H280.49V392.5H280.476V395.5ZM280.462 395.5H280.476V392.5H280.462V395.5ZM280.448 395.5H280.462V392.5H280.448V395.5ZM280.434 395.5H280.448V392.5H280.434V395.5ZM280.42 395.5H280.434V392.5H280.42V395.5ZM280.406 395.5H280.42V392.5H280.406V395.5ZM280.392 395.5H280.406V392.5H280.392V395.5ZM280.378 395.5H280.392V392.5H280.378V395.5ZM280.363 395.5H280.378V392.5H280.363V395.5ZM280.349 395.5H280.363V392.5H280.349V395.5ZM280.335 395.5H280.349V392.5H280.335V395.5ZM280.321 395.5H280.335V392.5H280.321V395.5ZM280.307 395.5H280.321V392.5H280.307V395.5ZM280.292 395.5H280.307V392.5H280.292V395.5ZM280.278 395.5H280.292V392.5H280.278V395.5ZM280.264 395.5H280.278V392.5H280.264V395.5ZM280.249 395.5H280.264V392.5H280.249V395.5ZM280.235 395.5H280.249V392.5H280.235V395.5ZM280.221 395.5H280.235V392.5H280.221V395.5ZM280.206 395.5H280.221V392.5H280.206V395.5ZM280.192 395.5H280.206V392.5H280.192V395.5ZM280.177 395.5H280.192V392.5H280.177V395.5ZM280.163 395.5H280.177V392.5H280.163V395.5ZM280.148 395.5H280.163V392.5H280.148V395.5ZM280.134 395.5H280.148V392.5H280.134V395.5ZM280.119 395.5H280.134V392.5H280.119V395.5ZM280.105 395.5H280.119V392.5H280.105V395.5ZM280.09 395.5H280.105V392.5H280.09V395.5ZM280.076 395.5H280.09V392.5H280.076V395.5ZM280.061 395.5H280.076V392.5H280.061V395.5ZM280.046 395.5H280.061V392.5H280.046V395.5ZM280.032 395.5H280.046V392.5H280.032V395.5ZM280.017 395.5H280.032V392.5H280.017V395.5ZM280.002 395.5H280.017V392.5H280.002V395.5ZM279.987 395.5H280.002V392.5H279.987V395.5ZM279.973 395.5H279.987V392.5H279.973V395.5ZM279.958 395.5H279.973V392.5H279.958V395.5ZM279.943 395.5H279.958V392.5H279.943V395.5ZM279.928 395.5H279.943V392.5H279.928V395.5ZM279.913 395.5H279.928V392.5H279.913V395.5ZM279.898 395.5H279.913V392.5H279.898V395.5ZM279.883 395.5H279.898V392.5H279.883V395.5ZM279.869 395.5H279.883V392.5H279.869V395.5ZM279.854 395.5H279.869V392.5H279.854V395.5ZM279.839 395.5H279.854V392.5H279.839V395.5ZM279.824 395.5H279.839V392.5H279.824V395.5ZM279.808 395.5H279.824V392.5H279.808V395.5ZM279.793 395.5H279.808V392.5H279.793V395.5ZM279.778 395.5H279.793V392.5H279.778V395.5ZM279.763 395.5H279.778V392.5H279.763V395.5ZM279.748 395.5H279.763V392.5H279.748V395.5ZM279.733 395.5H279.748V392.5H279.733V395.5ZM279.718 395.5H279.733V392.5H279.718V395.5ZM279.702 395.5H279.718V392.5H279.702V395.5ZM279.687 395.5H279.702V392.5H279.687V395.5ZM279.672 395.5H279.687V392.5H279.672V395.5ZM279.656 395.5H279.672V392.5H279.656V395.5ZM279.641 395.5H279.656V392.5H279.641V395.5ZM279.626 395.5H279.641V392.5H279.626V395.5ZM279.61 395.5H279.626V392.5H279.61V395.5ZM279.595 395.5H279.61V392.5H279.595V395.5ZM279.579 395.5H279.595V392.5H279.579V395.5ZM279.564 395.5H279.579V392.5H279.564V395.5ZM279.548 395.5H279.564V392.5H279.548V395.5ZM279.533 395.5H279.548V392.5H279.533V395.5ZM279.517 395.5H279.533V392.5H279.517V395.5ZM279.502 395.5H279.517V392.5H279.502V395.5ZM279.486 395.5H279.502V392.5H279.486V395.5ZM279.471 395.5H279.486V392.5H279.471V395.5ZM279.455 395.5H279.471V392.5H279.455V395.5ZM279.439 395.5H279.455V392.5H279.439V395.5ZM279.423 395.5H279.439V392.5H279.423V395.5ZM279.408 395.5H279.423V392.5H279.408V395.5ZM279.392 395.5H279.408V392.5H279.392V395.5ZM279.376 395.5H279.392V392.5H279.376V395.5ZM279.36 395.5H279.376V392.5H279.36V395.5ZM279.344 395.5H279.36V392.5H279.344V395.5ZM279.329 395.5H279.344V392.5H279.329V395.5ZM279.313 395.5H279.329V392.5H279.313V395.5ZM279.297 395.5H279.313V392.5H279.297V395.5ZM279.281 395.5H279.297V392.5H279.281V395.5ZM279.265 395.5H279.281V392.5H279.265V395.5ZM279.249 395.5H279.265V392.5H279.249V395.5ZM279.233 395.5H279.249V392.5H279.233V395.5ZM279.216 395.5H279.233V392.5H279.216V395.5ZM279.2 395.5H279.216V392.5H279.2V395.5ZM279.184 395.5H279.2V392.5H279.184V395.5ZM279.168 395.5H279.184V392.5H279.168V395.5ZM279.152 395.5H279.168V392.5H279.152V395.5ZM279.135 395.5H279.152V392.5H279.135V395.5ZM279.119 395.5H279.135V392.5H279.119V395.5ZM279.103 395.5H279.119V392.5H279.103V395.5ZM279.087 395.5H279.103V392.5H279.087V395.5ZM279.07 395.5H279.087V392.5H279.07V395.5ZM279.054 395.5H279.07V392.5H279.054V395.5ZM279.037 395.5H279.054V392.5H279.037V395.5ZM279.021 395.5H279.037V392.5H279.021V395.5ZM279.004 395.5H279.021V392.5H279.004V395.5ZM278.988 395.5H279.004V392.5H278.988V395.5ZM278.971 395.5H278.988V392.5H278.971V395.5ZM278.955 395.5H278.971V392.5H278.955V395.5ZM278.938 395.5H278.955V392.5H278.938V395.5ZM278.921 395.5H278.938V392.5H278.921V395.5ZM278.905 395.5H278.921V392.5H278.905V395.5ZM278.888 395.5H278.905V392.5H278.888V395.5ZM278.871 395.5H278.888V392.5H278.871V395.5ZM278.855 395.5H278.871V392.5H278.855V395.5ZM278.838 395.5H278.855V392.5H278.838V395.5ZM278.821 395.5H278.838V392.5H278.821V395.5ZM278.804 395.5H278.821V392.5H278.804V395.5ZM278.787 395.5H278.804V392.5H278.787V395.5ZM278.77 395.5H278.787V392.5H278.77V395.5ZM278.753 395.5H278.77V392.5H278.753V395.5ZM278.736 395.5H278.753V392.5H278.736V395.5ZM278.719 395.5H278.736V392.5H278.719V395.5ZM278.702 395.5H278.719V392.5H278.702V395.5ZM278.685 395.5H278.702V392.5H278.685V395.5ZM278.668 395.5H278.685V392.5H278.668V395.5ZM278.651 395.5H278.668V392.5H278.651V395.5ZM278.634 395.5H278.651V392.5H278.634V395.5ZM278.616 395.5H278.634V392.5H278.616V395.5ZM278.599 395.5H278.616V392.5H278.599V395.5ZM278.582 395.5H278.599V392.5H278.582V395.5ZM278.564 395.5H278.582V392.5H278.564V395.5ZM278.547 395.5H278.564V392.5H278.547V395.5ZM278.53 395.5H278.547V392.5H278.53V395.5ZM278.512 395.5H278.53V392.5H278.512V395.5ZM278.495 395.5H278.512V392.5H278.495V395.5ZM278.477 395.5H278.495V392.5H278.477V395.5ZM278.46 395.5H278.477V392.5H278.46V395.5ZM278.442 395.5H278.46V392.5H278.442V395.5ZM278.425 395.5H278.442V392.5H278.425V395.5ZM278.407 395.5H278.425V392.5H278.407V395.5ZM278.389 395.5H278.407V392.5H278.389V395.5ZM278.372 395.5H278.389V392.5H278.372V395.5ZM278.354 395.5H278.372V392.5H278.354V395.5ZM278.336 395.5H278.354V392.5H278.336V395.5ZM278.318 395.5H278.336V392.5H278.318V395.5ZM278.3 395.5H278.318V392.5H278.3V395.5ZM278.283 395.5H278.3V392.5H278.283V395.5ZM278.265 395.5H278.283V392.5H278.265V395.5ZM278.247 395.5H278.265V392.5H278.247V395.5ZM278.229 395.5H278.247V392.5H278.229V395.5ZM278.211 395.5H278.229V392.5H278.211V395.5ZM278.193 395.5H278.211V392.5H278.193V395.5ZM278.175 395.5H278.193V392.5H278.175V395.5ZM278.156 395.5H278.175V392.5H278.156V395.5ZM278.138 395.5H278.156V392.5H278.138V395.5ZM278.12 395.5H278.138V392.5H278.12V395.5ZM278.102 395.5H278.12V392.5H278.102V395.5ZM278.084 395.5H278.102V392.5H278.084V395.5ZM278.065 395.5H278.084V392.5H278.065V395.5ZM278.047 395.5H278.065V392.5H278.047V395.5ZM278.028 395.5H278.047V392.5H278.028V395.5ZM278.01 395.5H278.028V392.5H278.01V395.5ZM277.992 395.5H278.01V392.5H277.992V395.5ZM277.973 395.5H277.992V392.5H277.973V395.5ZM277.955 395.5H277.973V392.5H277.955V395.5ZM277.936 395.5H277.955V392.5H277.936V395.5ZM277.917 395.5H277.936V392.5H277.917V395.5ZM277.899 395.5H277.917V392.5H277.899V395.5ZM277.88 395.5H277.899V392.5H277.88V395.5ZM277.861 395.5H277.88V392.5H277.861V395.5ZM277.843 395.5H277.861V392.5H277.843V395.5ZM277.824 395.5H277.843V392.5H277.824V395.5ZM277.805 395.5H277.824V392.5H277.805V395.5ZM277.786 395.5H277.805V392.5H277.786V395.5ZM277.767 395.5H277.786V392.5H277.767V395.5ZM277.748 395.5H277.767V392.5H277.748V395.5ZM277.729 395.5H277.748V392.5H277.729V395.5ZM277.71 395.5H277.729V392.5H277.71V395.5ZM277.691 395.5H277.71V392.5H277.691V395.5ZM277.672 395.5H277.691V392.5H277.672V395.5ZM277.653 395.5H277.672V392.5H277.653V395.5ZM277.634 395.5H277.653V392.5H277.634V395.5ZM277.615 395.5H277.634V392.5H277.615V395.5ZM277.595 395.5H277.615V392.5H277.595V395.5ZM277.576 395.5H277.595V392.5H277.576V395.5ZM277.557 395.5H277.576V392.5H277.557V395.5ZM277.537 395.5H277.557V392.5H277.537V395.5ZM277.518 395.5H277.537V392.5H277.518V395.5ZM277.499 395.5H277.518V392.5H277.499V395.5ZM277.479 395.5H277.499V392.5H277.479V395.5ZM277.46 395.5H277.479V392.5H277.46V395.5ZM277.44 395.5H277.46V392.5H277.44V395.5ZM277.42 395.5H277.44V392.5H277.42V395.5ZM277.401 395.5H277.42V392.5H277.401V395.5ZM277.381 395.5H277.401V392.5H277.381V395.5ZM277.361 395.5H277.381V392.5H277.361V395.5ZM277.342 395.5H277.361V392.5H277.342V395.5ZM277.322 395.5H277.342V392.5H277.322V395.5ZM277.302 395.5H277.322V392.5H277.302V395.5ZM277.282 395.5H277.302V392.5H277.282V395.5ZM277.262 395.5H277.282V392.5H277.262V395.5ZM277.242 395.5H277.262V392.5H277.242V395.5ZM277.222 395.5H277.242V392.5H277.222V395.5ZM277.202 395.5H277.222V392.5H277.202V395.5ZM277.182 395.5H277.202V392.5H277.182V395.5ZM277.162 395.5H277.182V392.5H277.162V395.5ZM277.142 395.5H277.162V392.5H277.142V395.5ZM277.122 395.5H277.142V392.5H277.122V395.5ZM277.101 395.5H277.122V392.5H277.101V395.5ZM277.081 395.5H277.101V392.5H277.081V395.5ZM277.061 395.5H277.081V392.5H277.061V395.5ZM277.04 395.5H277.061V392.5H277.04V395.5ZM277.02 395.5H277.04V392.5H277.02V395.5ZM276.999 395.5H277.02V392.5H276.999V395.5ZM276.979 395.5H276.999V392.5H276.979V395.5ZM276.958 395.5H276.979V392.5H276.958V395.5ZM276.938 395.5H276.958V392.5H276.938V395.5ZM276.917 395.5H276.938V392.5H276.917V395.5ZM276.896 395.5H276.917V392.5H276.896V395.5ZM276.876 395.5H276.896V392.5H276.876V395.5ZM276.855 395.5H276.876V392.5H276.855V395.5ZM276.834 395.5H276.855V392.5H276.834V395.5ZM276.813 395.5H276.834V392.5H276.813V395.5ZM276.792 395.5H276.813V392.5H276.792V395.5ZM276.772 395.5H276.792V392.5H276.772V395.5ZM276.751 395.5H276.772V392.5H276.751V395.5ZM276.73 395.5H276.751V392.5H276.73V395.5ZM276.708 395.5H276.73V392.5H276.708V395.5ZM276.687 395.5H276.708V392.5H276.687V395.5ZM276.666 395.5H276.687V392.5H276.666V395.5ZM276.645 395.5H276.666V392.5H276.645V395.5ZM276.624 395.5H276.645V392.5H276.624V395.5ZM276.603 395.5H276.624V392.5H276.603V395.5ZM276.581 395.5H276.603V392.5H276.581V395.5ZM276.56 395.5H276.581V392.5H276.56V395.5ZM276.538 395.5H276.56V392.5H276.538V395.5ZM276.517 395.5H276.538V392.5H276.517V395.5ZM276.495 395.5H276.517V392.5H276.495V395.5ZM276.474 395.5H276.495V392.5H276.474V395.5ZM276.452 395.5H276.474V392.5H276.452V395.5ZM276.431 395.5H276.452V392.5H276.431V395.5ZM276.409 395.5H276.431V392.5H276.409V395.5ZM276.387 395.5H276.409V392.5H276.387V395.5ZM276.366 395.5H276.387V392.5H276.366V395.5ZM276.344 395.5H276.366V392.5H276.344V395.5ZM276.322 395.5H276.344V392.5H276.322V395.5ZM276.3 395.5H276.322V392.5H276.3V395.5ZM276.278 395.5H276.3V392.5H276.278V395.5ZM276.256 395.5H276.278V392.5H276.256V395.5ZM276.234 395.5H276.256V392.5H276.234V395.5ZM276.212 395.5H276.234V392.5H276.212V395.5ZM276.19 395.5H276.212V392.5H276.19V395.5ZM276.168 395.5H276.19V392.5H276.168V395.5ZM276.145 395.5H276.168V392.5H276.145V395.5ZM276.123 395.5H276.145V392.5H276.123V395.5ZM276.101 395.5H276.123V392.5H276.101V395.5ZM276.078 395.5H276.101V392.5H276.078V395.5ZM276.056 395.5H276.078V392.5H276.056V395.5ZM276.034 395.5H276.056V392.5H276.034V395.5ZM276.011 395.5H276.034V392.5H276.011V395.5ZM275.988 395.5H276.011V392.5H275.988V395.5ZM275.966 395.5H275.988V392.5H275.966V395.5ZM275.943 395.5H275.966V392.5H275.943V395.5ZM275.921 395.5H275.943V392.5H275.921V395.5ZM275.898 395.5H275.921V392.5H275.898V395.5ZM275.875 395.5H275.898V392.5H275.875V395.5ZM275.852 395.5H275.875V392.5H275.852V395.5ZM275.829 395.5H275.852V392.5H275.829V395.5ZM275.806 395.5H275.829V392.5H275.806V395.5ZM275.783 395.5H275.806V392.5H275.783V395.5ZM275.76 395.5H275.783V392.5H275.76V395.5ZM275.737 395.5H275.76V392.5H275.737V395.5ZM275.714 395.5H275.737V392.5H275.714V395.5ZM275.691 395.5H275.714V392.5H275.691V395.5ZM275.668 395.5H275.691V392.5H275.668V395.5ZM275.645 395.5H275.668V392.5H275.645V395.5ZM275.621 395.5H275.645V392.5H275.621V395.5ZM275.598 395.5H275.621V392.5H275.598V395.5ZM275.574 395.5H275.598V392.5H275.574V395.5ZM275.551 395.5H275.574V392.5H275.551V395.5ZM275.527 395.5H275.551V392.5H275.527V395.5ZM275.504 395.5H275.527V392.5H275.504V395.5ZM275.48 395.5H275.504V392.5H275.48V395.5ZM275.457 395.5H275.48V392.5H275.457V395.5ZM275.433 395.5H275.457V392.5H275.433V395.5ZM275.409 395.5H275.433V392.5H275.409V395.5ZM275.385 395.5H275.409V392.5H275.385V395.5ZM275.362 395.5H275.385V392.5H275.362V395.5ZM275.338 395.5H275.362V392.5H275.338V395.5ZM275.314 395.5H275.338V392.5H275.314V395.5ZM275.29 395.5H275.314V392.5H275.29V395.5ZM275.266 395.5H275.29V392.5H275.266V395.5ZM275.242 395.5H275.266V392.5H275.242V395.5ZM275.217 395.5H275.242V392.5H275.217V395.5ZM275.193 395.5H275.217V392.5H275.193V395.5ZM275.169 395.5H275.193V392.5H275.169V395.5ZM275.145 395.5H275.169V392.5H275.145V395.5ZM275.12 395.5H275.145V392.5H275.12V395.5ZM275.096 395.5H275.12V392.5H275.096V395.5ZM275.071 395.5H275.096V392.5H275.071V395.5ZM275.047 395.5H275.071V392.5H275.047V395.5ZM275.022 395.5H275.047V392.5H275.022V395.5ZM274.998 395.5H275.022V392.5H274.998V395.5ZM274.973 395.5H274.998V392.5H274.973V395.5ZM274.948 395.5H274.973V392.5H274.948V395.5ZM274.924 395.5H274.948V392.5H274.924V395.5ZM274.899 395.5H274.924V392.5H274.899V395.5ZM274.874 395.5H274.899V392.5H274.874V395.5ZM274.849 395.5H274.874V392.5H274.849V395.5ZM274.824 395.5H274.849V392.5H274.824V395.5ZM274.799 395.5H274.824V392.5H274.799V395.5ZM274.774 395.5H274.799V392.5H274.774V395.5ZM274.749 395.5H274.774V392.5H274.749V395.5ZM274.724 395.5H274.749V392.5H274.724V395.5ZM274.698 395.5H274.724V392.5H274.698V395.5ZM274.673 395.5H274.698V392.5H274.673V395.5ZM274.648 395.5H274.673V392.5H274.648V395.5ZM274.622 395.5H274.648V392.5H274.622V395.5ZM274.597 395.5H274.622V392.5H274.597V395.5ZM274.571 395.5H274.597V392.5H274.571V395.5ZM274.546 395.5H274.571V392.5H274.546V395.5ZM274.52 395.5H274.546V392.5H274.52V395.5ZM274.495 395.5H274.52V392.5H274.495V395.5ZM274.469 395.5H274.495V392.5H274.469V395.5ZM274.443 395.5H274.469V392.5H274.443V395.5ZM274.417 395.5H274.443V392.5H274.417V395.5ZM274.392 395.5H274.417V392.5H274.392V395.5ZM274.366 395.5H274.392V392.5H274.366V395.5ZM274.34 395.5H274.366V392.5H274.34V395.5ZM274.314 395.5H274.34V392.5H274.314V395.5ZM274.288 395.5H274.314V392.5H274.288V395.5ZM274.261 395.5H274.288V392.5H274.261V395.5ZM274.235 395.5H274.261V392.5H274.235V395.5ZM274.209 395.5H274.235V392.5H274.209V395.5ZM274.183 395.5H274.209V392.5H274.183V395.5ZM274.156 395.5H274.183V392.5H274.156V395.5ZM274.13 395.5H274.156V392.5H274.13V395.5ZM274.103 395.5H274.13V392.5H274.103V395.5ZM274.077 395.5H274.103V392.5H274.077V395.5ZM274.05 395.5H274.077V392.5H274.05V395.5ZM274.024 395.5H274.05V392.5H274.024V395.5ZM273.997 395.5H274.024V392.5H273.997V395.5ZM273.97 395.5H273.997V392.5H273.97V395.5ZM273.943 395.5H273.97V392.5H273.943V395.5ZM273.917 395.5H273.943V392.5H273.917V395.5ZM273.89 395.5H273.917V392.5H273.89V395.5ZM273.863 395.5H273.89V392.5H273.863V395.5ZM273.836 395.5H273.863V392.5H273.836V395.5ZM273.809 395.5H273.836V392.5H273.809V395.5ZM273.782 395.5H273.809V392.5H273.782V395.5ZM273.754 395.5H273.782V392.5H273.754V395.5ZM273.727 395.5H273.754V392.5H273.727V395.5ZM273.7 395.5H273.727V392.5H273.7V395.5ZM273.673 395.5H273.7V392.5H273.673V395.5ZM273.645 395.5H273.673V392.5H273.645V395.5ZM273.618 395.5H273.645V392.5H273.618V395.5ZM273.59 395.5H273.618V392.5H273.59V395.5ZM273.563 395.5H273.59V392.5H273.563V395.5ZM273.535 395.5H273.563V392.5H273.535V395.5ZM273.507 395.5H273.535V392.5H273.507V395.5ZM273.479 395.5H273.507V392.5H273.479V395.5ZM273.452 395.5H273.479V392.5H273.452V395.5ZM273.424 395.5H273.452V392.5H273.424V395.5ZM273.396 395.5H273.424V392.5H273.396V395.5ZM273.368 395.5H273.396V392.5H273.368V395.5ZM273.34 395.5H273.368V392.5H273.34V395.5ZM273.312 395.5H273.34V392.5H273.312V395.5ZM273.284 395.5H273.312V392.5H273.284V395.5ZM273.255 395.5H273.284V392.5H273.255V395.5ZM273.227 395.5H273.255V392.5H273.227V395.5ZM273.199 395.5H273.227V392.5H273.199V395.5ZM273.17 395.5H273.199V392.5H273.17V395.5ZM273.142 395.5H273.17V392.5H273.142V395.5ZM273.113 395.5H273.142V392.5H273.113V395.5ZM273.085 395.5H273.113V392.5H273.085V395.5ZM273.056 395.5H273.085V392.5H273.056V395.5ZM273.028 395.5H273.056V392.5H273.028V395.5ZM272.999 395.5H273.028V392.5H272.999V395.5ZM272.97 395.5H272.999V392.5H272.97V395.5ZM272.941 395.5H272.97V392.5H272.941V395.5ZM272.912 395.5H272.941V392.5H272.912V395.5ZM272.883 395.5H272.912V392.5H272.883V395.5ZM272.854 395.5H272.883V392.5H272.854V395.5ZM272.825 395.5H272.854V392.5H272.825V395.5ZM272.796 395.5H272.825V392.5H272.796V395.5ZM272.767 395.5H272.796V392.5H272.767V395.5ZM272.738 395.5H272.767V392.5H272.738V395.5ZM272.708 395.5H272.738V392.5H272.708V395.5ZM272.679 395.5H272.708V392.5H272.679V395.5ZM272.649 395.5H272.679V392.5H272.649V395.5ZM272.62 395.5H272.649V392.5H272.62V395.5ZM272.59 395.5H272.62V392.5H272.59V395.5ZM272.561 395.5H272.59V392.5H272.561V395.5ZM272.531 395.5H272.561V392.5H272.531V395.5ZM272.501 395.5H272.531V392.5H272.501V395.5ZM272.471 395.5H272.501V392.5H272.471V395.5ZM272.442 395.5H272.471V392.5H272.442V395.5ZM272.412 395.5H272.442V392.5H272.412V395.5ZM272.382 395.5H272.412V392.5H272.382V395.5ZM272.352 395.5H272.382V392.5H272.352V395.5ZM272.321 395.5H272.352V392.5H272.321V395.5ZM272.291 395.5H272.321V392.5H272.291V395.5ZM272.261 395.5H272.291V392.5H272.261V395.5ZM272.231 395.5H272.261V392.5H272.231V395.5ZM272.2 395.5H272.231V392.5H272.2V395.5ZM272.17 395.5H272.2V392.5H272.17V395.5ZM272.139 395.5H272.17V392.5H272.139V395.5ZM272.109 395.5H272.139V392.5H272.109V395.5ZM272.078 395.5H272.109V392.5H272.078V395.5ZM272.048 395.5H272.078V392.5H272.048V395.5ZM272.017 395.5H272.048V392.5H272.017V395.5ZM271.986 395.5H272.017V392.5H271.986V395.5ZM271.955 395.5H271.986V392.5H271.955V395.5ZM271.924 395.5H271.955V392.5H271.924V395.5ZM271.893 395.5H271.924V392.5H271.893V395.5ZM271.862 395.5H271.893V392.5H271.862V395.5ZM271.831 395.5H271.862V392.5H271.831V395.5ZM171.207 371.182C207.252 381.071 245.076 390.077 271.481 395.465L272.081 392.525C245.748 387.153 207.99 378.163 172.001 368.289L171.207 371.182ZM81.7529 341.612C100.442 350.35 134.647 361.15 171.207 371.182L172.001 368.289C135.43 358.254 101.454 347.511 83.0235 338.894L81.7529 341.612ZM309.059 395.437L316.059 395.5L316.086 392.5L309.086 392.437L309.059 395.437ZM309.437 408.941L309.564 394.941L306.564 394.914L306.437 408.914L309.437 408.941ZM315.941 408.5L308.942 408.436L308.914 411.436L315.914 411.5L315.941 408.5ZM592.441 411L315.941 408.5L315.914 411.5L592.414 414L592.441 411ZM592.477 411L592.441 411L592.414 414L592.45 414L592.477 411ZM592.5 411H592.464V414H592.5V411ZM874 411H592.5V414H874V411ZM881 411H874V414H881V411ZM880.5 397.5V411.5H883.5V397.5H880.5ZM874 398H881V395H874V398ZM592.536 398H874V395H592.536V398ZM592.5 398H592.536V395H592.5V398ZM316.059 395.5L592.486 398L592.514 395L316.086 392.5L316.059 395.5ZM881 414C882.381 414 883.5 412.881 883.5 411.5H880.5C880.5 411.224 880.724 411 881 411V414ZM306.437 408.914C306.425 410.294 307.534 411.424 308.914 411.436L308.942 408.436C309.218 408.439 309.439 408.665 309.437 408.941L306.437 408.914ZM309.086 392.437C307.706 392.425 306.576 393.534 306.564 394.914L309.564 394.941C309.561 395.218 309.335 395.439 309.059 395.437L309.086 392.437ZM883.5 397.5C883.5 396.119 882.381 395 881 395V398C880.724 398 880.5 397.776 880.5 397.5H883.5ZM271.831 392.5C271.913 392.5 271.997 392.508 272.081 392.525L271.481 395.465C271.599 395.489 271.716 395.5 271.831 395.5V392.5ZM291 395C291 393.619 289.881 392.5 288.5 392.5V395.5C288.224 395.5 288 395.276 288 395H291ZM269.799 411.45C269.963 411.483 270.13 411.5 270.297 411.5V408.5C270.33 408.5 270.363 408.503 270.396 408.51L269.799 411.45ZM67.4294 349.818C66.8446 351.068 67.3845 352.556 68.6353 353.141L69.9059 350.423C70.156 350.54 70.264 350.838 70.147 351.088L67.4294 349.818ZM288.5 411.5C289.881 411.5 291 410.381 291 409H288C288 408.724 288.224 408.5 288.5 408.5V411.5ZM76.6823 335.929C75.4316 335.345 73.9436 335.884 73.3588 337.135L76.0764 338.406C75.9595 338.656 75.6619 338.764 75.4117 338.647L76.6823 335.929Z" fill="white"/>
</g>
<path opacity="0.3" d="M70.5 314C74.6614 319.826 91.2577 333.465 112.419 337.485C112.473 337.495 112.518 337.507 112.569 337.525C138.731 347.062 269.509 381.999 279.5 381L643 386.5H866C866.552 386.5 867 386.948 867 387.5V456C867 456.552 866.552 457 866 457H643C528.167 454.833 294.7 450.5 279.5 450.5C264.783 451.693 137.433 422.001 74.5528 406.755C73.9756 406.615 73.4316 407.013 73.3531 407.602L70.6441 427.92C70.5666 428.501 70.0082 428.891 69.4359 428.764L53.0092 425.113C52.6901 425.042 52.4258 424.82 52.3014 424.518L49.0753 416.683C49.0256 416.562 49 416.433 49 416.302V394.5L55 349" stroke="white" stroke-width="1.5"/>
<path opacity="0.4" d="M69.0233 654.554L137.676 593.826C137.919 593.61 138.24 593.523 138.557 593.599C169.25 600.908 231.152 615.392 237.124 615.778C242.697 616.138 260.773 617.361 270.941 618.051C271.8 618.11 272.183 619.154 271.571 619.76L133.244 756.646C133.124 756.764 133.038 756.905 132.99 757.066C130.474 765.57 125.972 783.539 127.558 789.301C129.559 796.572 195.099 778.153 496.279 778.153C567.66 778.153 774.593 786.012 865.999 789.266C866.565 789.286 867 788.831 867 788.265V525.201C867 524.637 866.538 524.184 865.974 524.201C591.487 532.834 262.271 515.021 261.141 514.96C261.106 514.958 261.121 514.957 261.086 514.951L56.6961 482.109C56.2863 482.044 55.8785 482.238 55.6712 482.597L46.5725 498.371C46.5309 498.443 46.4792 498.511 46.4213 498.571C38.1204 507.132 37.0347 514.735 37.0048 514.955L37.0026 514.97L30.0961 560.853C30.0376 561.241 30.211 561.628 30.5418 561.84C32.0301 562.795 34.5323 564.381 36.329 565.455C36.7245 565.691 36.9164 566.145 36.7981 566.59C33.0063 580.859 32.49 623.104 31.5179 654.015C31.5073 654.354 31.6748 654.675 31.9563 654.865C48.5851 666.064 63.5698 659.357 69.0233 654.554Z" stroke="white" stroke-width="2"/>
<path d="M314.744 48.4431C259.157 117.864 224.663 185.41 212.627 214.461C211.819 216.412 213.188 218.5 215.299 218.5H657C758.305 212.96 987.694 233.389 1093.13 244.639C1094.95 244.833 1096.43 243.356 1096.36 241.526L1089.6 71.4253C1089.54 70.0109 1088.59 68.8429 1087.19 68.6052C950.314 45.2851 608.774 9.01655 316.688 47.3436C315.923 47.4441 315.226 47.8403 314.744 48.4431Z" stroke="white" stroke-opacity="0.5" stroke-width="2"/>
<g filter="url(#filter2_d_28_62)">
<path fill-rule="evenodd" clip-rule="evenodd" d="M92.3047 377.002C88.3671 377.024 84.1162 377.232 80.8171 377.454C79.7959 377.523 79 378.378 79 379.423V395.163H77V379.423C77 377.347 78.5902 375.6 80.6824 375.459C84.0071 375.235 88.3016 375.025 92.2933 375.002C96.2457 374.98 100.023 375.138 102.243 375.692L101.757 377.633C99.8171 377.148 96.2816 376.979 92.3047 377.002ZM109.817 385.454C113.116 385.232 117.367 385.025 121.305 385.002C125.282 384.979 128.817 385.148 130.757 385.633L131.243 383.692C129.023 383.138 125.246 382.98 121.293 383.002C117.302 383.025 113.007 383.235 109.682 383.459C107.59 383.6 106 385.347 106 387.423V403.163H108V387.423C108 386.378 108.796 385.523 109.817 385.454ZM113.817 389.454C117.116 389.232 121.367 389.025 125.305 389.002C129.282 388.979 132.817 389.148 134.757 389.633L135.243 387.692C133.023 387.138 129.246 386.98 125.293 387.002C121.302 387.025 117.007 387.235 113.682 387.459C111.59 387.6 110 389.347 110 391.423V407.163H112V391.423C112 390.378 112.796 389.523 113.817 389.454ZM155.305 389.002C151.367 389.025 147.116 389.232 143.817 389.454C142.796 389.523 142 390.378 142 391.423V407.163H140V391.423C140 389.347 141.59 387.6 143.682 387.459C147.007 387.235 151.302 387.025 155.293 387.002C159.246 386.98 163.023 387.138 165.243 387.692L164.757 389.633C162.817 389.148 159.282 388.979 155.305 389.002ZM147.817 393.454C151.116 393.232 155.367 393.025 159.305 393.002C163.282 392.979 166.817 393.148 168.757 393.633L169.243 391.692C167.023 391.138 163.246 390.98 159.293 391.002C155.302 391.025 151.007 391.235 147.682 391.459C145.59 391.6 144 393.347 144 395.423V411.163H146V395.423C146 394.378 146.796 393.523 147.817 393.454ZM189.305 399.002C185.367 399.025 181.116 399.232 177.817 399.454C176.796 399.523 176 400.378 176 401.423V417.163H174V401.423C174 399.347 175.59 397.6 177.682 397.459C181.007 397.235 185.302 397.025 189.293 397.002C193.246 396.98 197.023 397.138 199.243 397.692L198.757 399.633C196.817 399.148 193.282 398.979 189.305 399.002ZM181.817 403.454C185.116 403.232 189.367 403.025 193.305 403.002C197.282 402.979 200.817 403.148 202.757 403.633L203.243 401.692C201.023 401.138 197.246 400.98 193.293 401.002C189.302 401.025 185.007 401.235 181.682 401.459C179.59 401.6 178 403.347 178 405.423V421.163H180V405.423C180 404.378 180.796 403.523 181.817 403.454ZM223.305 404.002C219.367 404.025 215.116 404.232 211.817 404.454C210.796 404.523 210 405.378 210 406.423V422.163H208V406.423C208 404.347 209.59 402.6 211.682 402.459C215.007 402.235 219.302 402.025 223.293 402.002C227.246 401.98 231.023 402.138 233.243 402.692L232.757 404.633C230.817 404.148 227.282 403.979 223.305 404.002ZM215.817 408.454C219.116 408.232 223.367 408.025 227.305 408.002C231.282 407.979 234.817 408.148 236.757 408.633L237.243 406.692C235.023 406.138 231.246 405.98 227.293 406.002C223.302 406.025 219.007 406.235 215.682 406.459C213.59 406.6 212 408.347 212 410.423V426.163H214V410.423C214 409.378 214.796 408.523 215.817 408.454ZM84.8171 381.454C88.1162 381.232 92.3671 381.024 96.3047 381.002C100.282 380.979 103.817 381.148 105.757 381.633L106.243 379.692C104.023 379.138 100.246 378.98 96.2933 379.002C92.3016 379.025 88.0071 379.235 84.6824 379.459C82.5902 379.6 81 381.347 81 383.423V399.163H83V383.423C83 382.378 83.7959 381.523 84.8171 381.454Z" fill="url(#paint1_linear_28_62)" shape-rendering="crispEdges"/>
<path d="M80.8171 377.454L80.834 377.704H80.834L80.8171 377.454ZM92.3047 377.002L92.3033 376.752L92.3047 377.002ZM79 395.163V395.413H79.25V395.163H79ZM77 395.163H76.75V395.413H77V395.163ZM80.6824 375.459L80.6656 375.21L80.6824 375.459ZM92.2933 375.002L92.2947 375.252L92.2933 375.002ZM102.243 375.692L102.485 375.753L102.546 375.511L102.303 375.45L102.243 375.692ZM101.757 377.633L101.697 377.875L101.939 377.936L102 377.693L101.757 377.633ZM121.305 385.002L121.306 385.252L121.305 385.002ZM109.817 385.454L109.834 385.704L109.817 385.454ZM130.757 385.633L130.697 385.875L130.939 385.936L131 385.693L130.757 385.633ZM131.243 383.692L131.485 383.753L131.546 383.511L131.303 383.45L131.243 383.692ZM121.293 383.002L121.292 382.752L121.293 383.002ZM109.682 383.459L109.666 383.21L109.682 383.459ZM106 403.163H105.75V403.413H106V403.163ZM108 403.163V403.413H108.25V403.163H108ZM125.305 389.002L125.303 388.752L125.305 389.002ZM113.817 389.454L113.8 389.205L113.817 389.454ZM134.757 389.633L134.697 389.875L134.939 389.936L135 389.693L134.757 389.633ZM135.243 387.692L135.485 387.753L135.546 387.511L135.303 387.45L135.243 387.692ZM125.293 387.002L125.292 386.752L125.293 387.002ZM113.682 387.459L113.666 387.21L113.682 387.459ZM110 407.163H109.75V407.413H110V407.163ZM112 407.163V407.413H112.25V407.163H112ZM143.817 389.454L143.8 389.205L143.817 389.454ZM155.305 389.002L155.303 388.752L155.305 389.002ZM142 407.163V407.413H142.25V407.163H142ZM140 407.163H139.75V407.413H140V407.163ZM143.682 387.459L143.699 387.708L143.682 387.459ZM155.293 387.002L155.292 386.752L155.293 387.002ZM165.243 387.692L165.485 387.753L165.546 387.511L165.303 387.45L165.243 387.692ZM164.757 389.633L164.697 389.875L164.939 389.936L165 389.693L164.757 389.633ZM159.305 393.002L159.306 393.252L159.305 393.002ZM147.817 393.454L147.834 393.704L147.817 393.454ZM168.757 393.633L168.697 393.875L168.939 393.936L169 393.693L168.757 393.633ZM169.243 391.692L169.485 391.753L169.546 391.511L169.303 391.45L169.243 391.692ZM159.293 391.002L159.295 391.252L159.293 391.002ZM147.682 391.459L147.666 391.21L147.682 391.459ZM144 411.163H143.75V411.413H144V411.163ZM146 411.163V411.413H146.25V411.163H146ZM177.817 399.454L177.8 399.205L177.817 399.454ZM189.305 399.002L189.303 398.752L189.305 399.002ZM176 417.163V417.413H176.25V417.163H176ZM174 417.163H173.75V417.413H174V417.163ZM177.682 397.459L177.666 397.21L177.682 397.459ZM189.293 397.002L189.295 397.252L189.293 397.002ZM199.243 397.692L199.485 397.753L199.546 397.511L199.303 397.45L199.243 397.692ZM198.757 399.633L198.697 399.875L198.939 399.936L199 399.693L198.757 399.633ZM193.305 403.002L193.306 403.252L193.305 403.002ZM181.817 403.454L181.834 403.704L181.817 403.454ZM202.757 403.633L202.697 403.875L202.939 403.936L203 403.693L202.757 403.633ZM203.243 401.692L203.485 401.753L203.546 401.511L203.303 401.45L203.243 401.692ZM193.293 401.002L193.295 401.252L193.293 401.002ZM181.682 401.459L181.699 401.708L181.682 401.459ZM178 421.163H177.75V421.413H178V421.163ZM180 421.163V421.413H180.25V421.163H180ZM211.817 404.454L211.834 404.704L211.817 404.454ZM223.305 404.002L223.306 404.252L223.305 404.002ZM210 422.163V422.413H210.25V422.163H210ZM208 422.163H207.75V422.413H208V422.163ZM211.682 402.459L211.699 402.708L211.682 402.459ZM223.293 402.002L223.295 402.252L223.293 402.002ZM233.243 402.692L233.485 402.753L233.546 402.511L233.303 402.45L233.243 402.692ZM232.757 404.633L232.697 404.875L232.939 404.936L233 404.693L232.757 404.633ZM227.305 408.002L227.306 408.252L227.305 408.002ZM215.817 408.454L215.834 408.704L215.817 408.454ZM236.757 408.633L236.697 408.875L236.939 408.936L237 408.693L236.757 408.633ZM237.243 406.692L237.485 406.753L237.546 406.511L237.303 406.45L237.243 406.692ZM227.293 406.002L227.295 406.252L227.293 406.002ZM215.682 406.459L215.699 406.708L215.682 406.459ZM212 426.163H211.75V426.413H212V426.163ZM214 426.163V426.413H214.25V426.163H214ZM96.3047 381.002L96.3033 380.752L96.3047 381.002ZM84.8171 381.454L84.8003 381.205L84.8171 381.454ZM105.757 381.633L105.697 381.875L105.939 381.936L106 381.693L105.757 381.633ZM106.243 379.692L106.485 379.753L106.546 379.511L106.303 379.45L106.243 379.692ZM96.2933 379.002L96.2919 378.752L96.2933 379.002ZM84.6824 379.459L84.6656 379.21L84.6824 379.459ZM81 399.163H80.75V399.413H81V399.163ZM83 399.163V399.413H83.25V399.163H83ZM80.834 377.704C84.1299 377.481 88.3753 377.274 92.3062 377.252L92.3033 376.752C88.3589 376.775 84.1026 376.982 80.8003 377.205L80.834 377.704ZM79.25 379.423C79.25 378.508 79.9462 377.764 80.834 377.704L80.8003 377.205C79.6455 377.283 78.75 378.249 78.75 379.423H79.25ZM79.25 395.163V379.423H78.75V395.163H79.25ZM77 395.413H79V394.913H77V395.413ZM76.75 379.423V395.163H77.25V379.423H76.75ZM80.6656 375.21C78.4394 375.36 76.75 377.218 76.75 379.423H77.25C77.25 377.476 78.7411 375.841 80.6993 375.708L80.6656 375.21ZM92.2919 374.752C88.2934 374.775 83.9935 374.985 80.6656 375.21L80.6993 375.708C84.0208 375.484 88.3098 375.275 92.2947 375.252L92.2919 374.752ZM102.303 375.45C100.049 374.886 96.2413 374.73 92.2919 374.752L92.2947 375.252C96.2501 375.229 99.9976 375.389 102.182 375.935L102.303 375.45ZM102 377.693L102.485 375.753L102 375.632L101.515 377.572L102 377.693ZM92.3062 377.252C96.2862 377.229 99.7914 377.399 101.697 377.875L101.818 377.39C99.8429 376.896 96.2771 376.729 92.3033 376.752L92.3062 377.252ZM121.303 384.752C117.359 384.775 113.103 384.982 109.8 385.205L109.834 385.704C113.13 385.481 117.375 385.274 121.306 385.252L121.303 384.752ZM130.818 385.39C128.843 384.896 125.277 384.729 121.303 384.752L121.306 385.252C125.286 385.229 128.791 385.399 130.697 385.875L130.818 385.39ZM131 383.632L130.515 385.572L131 385.693L131.485 383.753L131 383.632ZM121.295 383.252C125.25 383.23 128.998 383.389 131.182 383.935L131.303 383.45C129.049 382.886 125.241 382.73 121.292 382.752L121.295 383.252ZM109.699 383.708C113.021 383.484 117.31 383.275 121.295 383.252L121.292 382.752C117.293 382.775 112.993 382.985 109.666 383.21L109.699 383.708ZM106.25 387.423C106.25 385.476 107.741 383.841 109.699 383.708L109.666 383.21C107.439 383.36 105.75 385.219 105.75 387.423H106.25ZM106.25 403.163V387.423H105.75V403.163H106.25ZM108 402.913H106V403.413H108V402.913ZM107.75 387.423V403.163H108.25V387.423H107.75ZM109.8 385.205C108.646 385.283 107.75 386.249 107.75 387.423H108.25C108.25 386.508 108.946 385.764 109.834 385.704L109.8 385.205ZM125.303 388.752C121.359 388.775 117.103 388.982 113.8 389.205L113.834 389.704C117.13 389.481 121.375 389.274 125.306 389.252L125.303 388.752ZM134.818 389.39C132.843 388.896 129.277 388.729 125.303 388.752L125.306 389.252C129.286 389.229 132.791 389.399 134.697 389.875L134.818 389.39ZM135 387.632L134.515 389.572L135 389.693L135.485 387.753L135 387.632ZM125.295 387.252C129.25 387.23 132.998 387.389 135.182 387.935L135.303 387.45C133.049 386.886 129.241 386.73 125.292 386.752L125.295 387.252ZM113.699 387.708C117.021 387.484 121.31 387.275 125.295 387.252L125.292 386.752C121.293 386.775 116.993 386.985 113.666 387.21L113.699 387.708ZM110.25 391.423C110.25 389.476 111.741 387.841 113.699 387.708L113.666 387.21C111.439 387.36 109.75 389.219 109.75 391.423H110.25ZM110.25 407.163V391.423H109.75V407.163H110.25ZM112 406.913H110V407.413H112V406.913ZM111.75 391.423V407.163H112.25V391.423H111.75ZM113.8 389.205C112.646 389.283 111.75 390.249 111.75 391.423H112.25C112.25 390.508 112.946 389.764 113.834 389.704L113.8 389.205ZM143.834 389.704C147.13 389.481 151.375 389.274 155.306 389.252L155.303 388.752C151.359 388.775 147.103 388.982 143.8 389.205L143.834 389.704ZM142.25 391.423C142.25 390.508 142.946 389.764 143.834 389.704L143.8 389.205C142.646 389.283 141.75 390.249 141.75 391.423H142.25ZM142.25 407.163V391.423H141.75V407.163H142.25ZM140 407.413H142V406.913H140V407.413ZM139.75 391.423V407.163H140.25V391.423H139.75ZM143.666 387.21C141.439 387.36 139.75 389.219 139.75 391.423H140.25C140.25 389.476 141.741 387.841 143.699 387.708L143.666 387.21ZM155.292 386.752C151.293 386.775 146.993 386.985 143.666 387.21L143.699 387.708C147.021 387.484 151.31 387.275 155.295 387.252L155.292 386.752ZM165.303 387.45C163.049 386.886 159.241 386.73 155.292 386.752L155.295 387.252C159.25 387.23 162.998 387.389 165.182 387.935L165.303 387.45ZM165 389.693L165.485 387.753L165 387.632L164.515 389.572L165 389.693ZM155.306 389.252C159.286 389.229 162.791 389.399 164.697 389.875L164.818 389.39C162.843 388.896 159.277 388.729 155.303 388.752L155.306 389.252ZM159.303 392.752C155.359 392.775 151.103 392.982 147.8 393.205L147.834 393.704C151.13 393.481 155.375 393.274 159.306 393.252L159.303 392.752ZM168.818 393.39C166.843 392.896 163.277 392.729 159.303 392.752L159.306 393.252C163.286 393.229 166.791 393.399 168.697 393.875L168.818 393.39ZM169 391.632L168.515 393.572L169 393.693L169.485 391.753L169 391.632ZM159.295 391.252C163.25 391.23 166.998 391.389 169.182 391.935L169.303 391.45C167.049 390.886 163.241 390.73 159.292 390.752L159.295 391.252ZM147.699 391.708C151.021 391.484 155.31 391.275 159.295 391.252L159.292 390.752C155.293 390.775 150.993 390.985 147.666 391.21L147.699 391.708ZM144.25 395.423C144.25 393.476 145.741 391.841 147.699 391.708L147.666 391.21C145.439 391.36 143.75 393.219 143.75 395.423H144.25ZM144.25 411.163V395.423H143.75V411.163H144.25ZM146 410.913H144V411.413H146V410.913ZM145.75 395.423V411.163H146.25V395.423H145.75ZM147.8 393.205C146.646 393.283 145.75 394.249 145.75 395.423H146.25C146.25 394.508 146.946 393.764 147.834 393.704L147.8 393.205ZM177.834 399.704C181.13 399.481 185.375 399.274 189.306 399.252L189.303 398.752C185.359 398.775 181.103 398.982 177.8 399.205L177.834 399.704ZM176.25 401.423C176.25 400.508 176.946 399.764 177.834 399.704L177.8 399.205C176.646 399.283 175.75 400.249 175.75 401.423H176.25ZM176.25 417.163V401.423H175.75V417.163H176.25ZM174 417.413H176V416.913H174V417.413ZM173.75 401.423V417.163H174.25V401.423H173.75ZM177.666 397.21C175.439 397.36 173.75 399.219 173.75 401.423H174.25C174.25 399.476 175.741 397.841 177.699 397.708L177.666 397.21ZM189.292 396.752C185.293 396.775 180.993 396.985 177.666 397.21L177.699 397.708C181.021 397.484 185.31 397.275 189.295 397.252L189.292 396.752ZM199.303 397.45C197.049 396.886 193.241 396.73 189.292 396.752L189.295 397.252C193.25 397.23 196.998 397.389 199.182 397.935L199.303 397.45ZM199 399.693L199.485 397.753L199 397.632L198.515 399.572L199 399.693ZM189.306 399.252C193.286 399.229 196.791 399.399 198.697 399.875L198.818 399.39C196.843 398.896 193.277 398.729 189.303 398.752L189.306 399.252ZM193.303 402.752C189.359 402.775 185.103 402.982 181.8 403.205L181.834 403.704C185.13 403.481 189.375 403.274 193.306 403.252L193.303 402.752ZM202.818 403.39C200.843 402.896 197.277 402.729 193.303 402.752L193.306 403.252C197.286 403.229 200.791 403.399 202.697 403.875L202.818 403.39ZM203 401.632L202.515 403.572L203 403.693L203.485 401.753L203 401.632ZM193.295 401.252C197.25 401.23 200.998 401.389 203.182 401.935L203.303 401.45C201.049 400.886 197.241 400.73 193.292 400.752L193.295 401.252ZM181.699 401.708C185.021 401.484 189.31 401.275 193.295 401.252L193.292 400.752C189.293 400.775 184.993 400.985 181.666 401.21L181.699 401.708ZM178.25 405.423C178.25 403.476 179.741 401.841 181.699 401.708L181.666 401.21C179.439 401.36 177.75 403.219 177.75 405.423H178.25ZM178.25 421.163V405.423H177.75V421.163H178.25ZM180 420.913H178V421.413H180V420.913ZM179.75 405.423V421.163H180.25V405.423H179.75ZM181.8 403.205C180.646 403.283 179.75 404.249 179.75 405.423H180.25C180.25 404.508 180.946 403.764 181.834 403.704L181.8 403.205ZM211.834 404.704C215.13 404.481 219.375 404.274 223.306 404.252L223.303 403.752C219.359 403.775 215.103 403.982 211.8 404.205L211.834 404.704ZM210.25 406.423C210.25 405.508 210.946 404.764 211.834 404.704L211.8 404.205C210.646 404.283 209.75 405.249 209.75 406.423H210.25ZM210.25 422.163V406.423H209.75V422.163H210.25ZM208 422.413H210V421.913H208V422.413ZM207.75 406.423V422.163H208.25V406.423H207.75ZM211.666 402.21C209.439 402.36 207.75 404.219 207.75 406.423H208.25C208.25 404.476 209.741 402.841 211.699 402.708L211.666 402.21ZM223.292 401.752C219.293 401.775 214.993 401.985 211.666 402.21L211.699 402.708C215.021 402.484 219.31 402.275 223.295 402.252L223.292 401.752ZM233.303 402.45C231.049 401.886 227.241 401.73 223.292 401.752L223.295 402.252C227.25 402.23 230.998 402.389 233.182 402.935L233.303 402.45ZM233 404.693L233.485 402.753L233 402.632L232.515 404.572L233 404.693ZM223.306 404.252C227.286 404.229 230.791 404.399 232.697 404.875L232.818 404.39C230.843 403.896 227.277 403.729 223.303 403.752L223.306 404.252ZM227.303 407.752C223.359 407.775 219.103 407.982 215.8 408.205L215.834 408.704C219.13 408.481 223.375 408.274 227.306 408.252L227.303 407.752ZM236.818 408.39C234.843 407.896 231.277 407.729 227.303 407.752L227.306 408.252C231.286 408.229 234.791 408.399 236.697 408.875L236.818 408.39ZM237 406.632L236.515 408.572L237 408.693L237.485 406.753L237 406.632ZM227.295 406.252C231.25 406.23 234.998 406.389 237.182 406.935L237.303 406.45C235.049 405.886 231.241 405.73 227.292 405.752L227.295 406.252ZM215.699 406.708C219.021 406.484 223.31 406.275 227.295 406.252L227.292 405.752C223.293 405.775 218.993 405.985 215.666 406.21L215.699 406.708ZM212.25 410.423C212.25 408.476 213.741 406.841 215.699 406.708L215.666 406.21C213.439 406.36 211.75 408.219 211.75 410.423H212.25ZM212.25 426.163V410.423H211.75V426.163H212.25ZM214 425.913H212V426.413H214V425.913ZM213.75 410.423V426.163H214.25V410.423H213.75ZM215.8 408.205C214.646 408.283 213.75 409.249 213.75 410.423H214.25C214.25 409.508 214.946 408.764 215.834 408.704L215.8 408.205ZM96.3033 380.752C92.3589 380.775 88.1026 380.982 84.8003 381.205L84.834 381.704C88.1299 381.481 92.3753 381.274 96.3062 381.252L96.3033 380.752ZM105.818 381.39C103.843 380.896 100.277 380.729 96.3033 380.752L96.3062 381.252C100.286 381.229 103.791 381.399 105.697 381.875L105.818 381.39ZM106 379.632L105.515 381.572L106 381.693L106.485 379.753L106 379.632ZM96.2947 379.252C100.25 379.229 103.998 379.389 106.182 379.935L106.303 379.45C104.049 378.886 100.241 378.73 96.2919 378.752L96.2947 379.252ZM84.6993 379.708C88.0208 379.484 92.3098 379.275 96.2947 379.252L96.2919 378.752C92.2934 378.775 87.9935 378.985 84.6656 379.21L84.6993 379.708ZM81.25 383.423C81.25 381.476 82.7411 379.841 84.6993 379.708L84.6656 379.21C82.4394 379.36 80.75 381.218 80.75 383.423H81.25ZM81.25 399.163V383.423H80.75V399.163H81.25ZM83 398.913H81V399.413H83V398.913ZM82.75 383.423V399.163H83.25V383.423H82.75ZM84.8003 381.205C83.6455 381.283 82.75 382.249 82.75 383.423H83.25C83.25 382.508 83.9462 381.764 84.834 381.704L84.8003 381.205Z" fill="white"/>
</g>
<path d="M173.138 159.527L175.873 209.677C175.948 211.044 175.163 212.542 174.653 213.813C172.886 218.215 171.762 228.115 159 217C155.546 213.992 131.558 210.785 119.647 209.092C119.215 209.031 118.81 208.883 118.458 208.625C115.026 206.115 109.362 199.481 110.5 190C112 177.5 138.5 164 150.5 158C158.508 153.996 165.797 155.628 170.509 156.57C171.943 156.856 173.058 158.067 173.138 159.527Z" stroke="#959599" stroke-width="2"/>
<path d="M36 782C37.4591 800.403 43.7539 840.691 57.2606 854.618C70.6622 868.436 93.7905 875.236 103.923 876.96C104.085 876.988 104.241 877 104.406 877H163.563H211.087C217.716 876.341 231.923 870.998 236.025 854.915C236.075 854.72 236.103 854.518 236.111 854.317C236.738 838.454 237.757 818.924 236.1 811.346" stroke="#959599" stroke-width="2"/>
<path d="M604.12 355.522C605.038 354.664 605.935 353.987 606.574 353.746C607.607 353.357 612.454 351.627 617.515 349.978C620.045 349.154 622.623 348.352 624.803 347.748C627.004 347.138 628.74 346.748 629.617 346.718C629.8 346.711 630.138 346.744 630.642 346.826C631.135 346.907 631.756 347.031 632.489 347.192C633.954 347.514 635.845 347.982 638.015 348.551C642.355 349.687 647.793 351.218 653.124 352.762C658.455 354.306 663.676 355.862 667.582 357.048C669.535 357.641 671.158 358.142 672.302 358.502C672.874 358.682 673.324 358.827 673.634 358.93C673.79 358.981 673.907 359.022 673.986 359.05C674.01 359.059 674.028 359.066 674.042 359.071C674.099 359.11 674.157 359.141 674.194 359.161L674.195 359.162C674.274 359.205 674.375 359.256 674.494 359.314C674.732 359.431 675.057 359.584 675.445 359.764C675.652 359.861 675.879 359.966 676.121 360.078C676.787 360.387 677.571 360.751 678.413 361.149C679.228 361.535 679.273 361.982 679.224 362.135C679.174 362.292 678.872 362.633 677.982 362.487C664.596 360.292 637.191 355.29 635.718 355.021C635.634 355.005 635.587 355.001 635.519 354.995C634.764 354.933 629.319 354.513 624.436 355.004C622.412 355.207 618.022 355.752 613.459 356.319C610.564 356.678 607.598 357.047 605.123 357.342C604.474 357.419 604.023 357.125 603.832 356.768C603.648 356.425 603.663 355.95 604.12 355.522ZM638.03 344.102C644.409 342.277 654.005 339.885 663.523 338.435C664.291 338.318 664.823 338.728 665.027 339.27C665.233 339.816 665.105 340.5 664.458 340.947L664.417 340.975C661.269 343.148 658.292 345.204 655.951 346.764C654.78 347.545 653.773 348.199 652.985 348.681C652.177 349.177 651.651 349.458 651.416 349.534C651.376 349.547 651.224 349.566 650.901 349.542C650.601 349.52 650.214 349.468 649.752 349.387C648.828 349.225 647.639 348.958 646.317 348.625C643.673 347.961 640.526 347.044 637.96 346.224C637.296 346.012 637.052 345.551 637.064 345.156C637.076 344.757 637.355 344.295 638.03 344.102Z" fill="#D9D9D9" stroke="white"/>
<path d="M44.5 501.5L209.587 537.302C210.182 537.431 210.715 537.73 211.133 538.172C221.57 549.219 243.27 570.432 251.5 572C262 574 518.983 584 639.5 584C736.591 584 830.032 583.365 870.58 583.954C872.217 583.978 873.5 585.312 873.5 586.949V626.442C873.5 628.121 872.122 629.474 870.443 629.442L272 618L237.244 616.014C237.082 616.005 236.92 615.982 236.761 615.947L138.5 594L37 566.5" stroke="#959599" stroke-width="2"/>
<defs>
<filter id="filter0_d_28_62" x="0.507324" y="0.481445" width="1182.49" height="826.513" filterUnits="userSpaceOnUse" color-interpolation-filters="sRGB">
<feFlood flood-opacity="0" result="BackgroundImageFix"/>
<feColorMatrix in="SourceAlpha" type="matrix" values="0 0 0 0 0 0 0 0 0 0 0 0 0 0 0 0 0 0 127 0" result="hardAlpha"/>
<feOffset/>
<feGaussianBlur stdDeviation="5"/>
<feComposite in2="hardAlpha" operator="out"/>
<feColorMatrix type="matrix" values="0 0 0 0 1 0 0 0 0 1 0 0 0 0 1 0 0 0 1 0"/>
<feBlend mode="normal" in2="BackgroundImageFix" result="effect1_dropShadow_28_62"/>
<feBlend mode="normal" in="SourceGraphic" in2="effect1_dropShadow_28_62" result="shape"/>
</filter>
<filter id="filter1_di_28_62" x="49.1935" y="318.693" width="852.307" height="114.307" filterUnits="userSpaceOnUse" color-interpolation-filters="sRGB">
<feFlood flood-opacity="0" result="BackgroundImageFix"/>
<feColorMatrix in="SourceAlpha" type="matrix" values="0 0 0 0 0 0 0 0 0 0 0 0 0 0 0 0 0 0 127 0" result="hardAlpha"/>
<feOffset dy="1"/>
<feGaussianBlur stdDeviation="9"/>
<feComposite in2="hardAlpha" operator="out"/>
<feColorMatrix type="matrix" values="0 0 0 0 1 0 0 0 0 1 0 0 0 0 1 0 0 0 1 0"/>
<feBlend mode="normal" in2="BackgroundImageFix" result="effect1_dropShadow_28_62"/>
<feBlend mode="normal" in="SourceGraphic" in2="effect1_dropShadow_28_62" result="shape"/>
<feColorMatrix in="SourceAlpha" type="matrix" values="0 0 0 0 0 0 0 0 0 0 0 0 0 0 0 0 0 0 127 0" result="hardAlpha"/>
<feOffset/>
<feGaussianBlur stdDeviation="6"/>
<feComposite in2="hardAlpha" operator="arithmetic" k2="-1" k3="1"/>
<feColorMatrix type="matrix" values="0 0 0 0 1 0 0 0 0 1 0 0 0 0 1 0 0 0 1 0"/>
<feBlend mode="normal" in2="shape" result="effect2_innerShadow_28_62"/>
</filter>
<filter id="filter2_d_28_62" x="71.75" y="369.75" width="170.796" height="61.6626" filterUnits="userSpaceOnUse" color-interpolation-filters="sRGB">
<feFlood flood-opacity="0" result="BackgroundImageFix"/>
<feColorMatrix in="SourceAlpha" type="matrix" values="0 0 0 0 0 0 0 0 0 0 0 0 0 0 0 0 0 0 127 0" result="hardAlpha"/>
<feOffset/>
<feGaussianBlur stdDeviation="2.5"/>
<feComposite in2="hardAlpha" operator="out"/>
<feColorMatrix type="matrix" values="0 0 0 0 1 0 0 0 0 1 0 0 0 0 1 0 0 0 1 0"/>
<feBlend mode="normal" in2="BackgroundImageFix" result="effect1_dropShadow_28_62"/>
<feBlend mode="normal" in="SourceGraphic" in2="effect1_dropShadow_28_62" result="shape"/>
</filter>
<linearGradient id="paint0_linear_28_62" x1="475" y1="299.5" x2="475.347" y2="412.5" gradientUnits="userSpaceOnUse">
<stop stop-color="white"/>
<stop offset="1" stop-color="white" stop-opacity="0"/>
</linearGradient>
<linearGradient id="paint1_linear_28_62" x1="157.121" y1="375" x2="154.104" y2="412.946" gradientUnits="userSpaceOnUse">
<stop stop-color="#D9D9D9"/>
<stop offset="1" stop-color="#D9D9D9" stop-opacity="0"/>
</linearGradient>
</defs>
</svg>
