<svg width="480" height="323" viewBox="0 0 480 323" fill="none" xmlns="http://www.w3.org/2000/svg">
<g filter="url(#filter0_d_125_2)">
<path d="M173.506 100.7V99.7H172.506V100.7H173.506ZM224.806 100.7H225.806V99.7H224.806V100.7ZM207.706 295.4L208.49 296.021L207.706 295.4ZM112.006 309.8L111.58 310.704L111.587 310.708L111.594 310.711L112.006 309.8ZM86.8063 287.3L85.9443 287.807L85.9502 287.817L85.9563 287.827L86.8063 287.3ZM77.8063 248.9V247.9H76.8063V248.9H77.8063ZM129.706 248.9H130.706V247.9H129.706V248.9ZM135.406 269L134.649 269.654L134.657 269.662L134.665 269.671L135.406 269ZM167.506 268.4L166.738 267.76L166.735 267.763L167.506 268.4ZM174.506 247.4V100.7H172.506V247.4H174.506ZM173.506 101.7H224.806V99.7H173.506V101.7ZM223.806 100.7V228.5H225.806V100.7H223.806ZM223.806 228.5C223.806 258.608 218.117 280.638 206.922 294.779L208.49 296.021C220.095 281.362 225.806 258.792 225.806 228.5H223.806ZM206.922 294.779C195.794 308.836 176.464 316 148.606 316V318C176.748 318 196.818 310.764 208.49 296.021L206.922 294.779ZM148.606 316C134.922 316 122.867 313.62 112.419 308.889L111.594 310.711C122.345 315.58 134.69 318 148.606 318V316ZM112.433 308.896C102.008 303.978 93.7549 296.61 87.6562 286.773L85.9563 287.827C92.2576 297.99 100.804 305.622 111.58 310.704L112.433 308.896ZM87.6682 286.793C81.7819 276.786 78.8063 264.174 78.8063 248.9H76.8063C76.8063 264.426 79.8306 277.414 85.9443 287.807L87.6682 286.793ZM77.8063 249.9H129.706V247.9H77.8063V249.9ZM128.706 248.9C128.706 258.014 130.626 264.995 134.649 269.654L136.163 268.346C132.586 264.205 130.706 257.786 130.706 248.9H128.706ZM134.665 269.671C138.692 274.122 144.285 276.3 151.306 276.3V274.3C144.727 274.3 139.72 272.278 136.148 268.329L134.665 269.671ZM151.306 276.3C158.547 276.3 164.253 273.908 168.277 269.037L166.735 267.763C163.159 272.092 158.065 274.3 151.306 274.3V276.3ZM168.274 269.04C172.481 263.992 174.506 256.727 174.506 247.4H172.506C172.506 256.473 170.532 263.208 166.738 267.76L168.274 269.04ZM402.263 100.7H403.263V99.7H402.263V100.7ZM402.263 128.3L403.183 128.694L403.263 128.505V128.3H402.263ZM322.763 314V315H323.423L323.683 314.394L322.763 314ZM270.563 314L269.655 313.582L269.002 315H270.563V314ZM350.363 140.6L351.272 141.018L351.924 139.6H350.363V140.6ZM248.663 140.6H247.663V141.6H248.663V140.6ZM248.663 100.7V99.7H247.663V100.7H248.663ZM401.263 100.7V128.3H403.263V100.7H401.263ZM401.344 127.906L321.844 313.606L323.683 314.394L403.183 128.694L401.344 127.906ZM322.763 313H270.563V315H322.763V313ZM271.472 314.418L351.272 141.018L349.455 140.182L269.655 313.582L271.472 314.418ZM350.363 139.6H248.663V141.6H350.363V139.6ZM249.663 140.6V100.7H247.663V140.6H249.663ZM248.663 101.7H402.263V99.7H248.663V101.7Z" fill="#958DEE"/>
</g>
<path d="M166.506 235.4V88.7H217.806V216.5C217.806 246.7 212.106 269 200.706 283.4C189.306 297.8 169.606 305 141.606 305C127.806 305 115.606 302.6 105.006 297.8C94.4063 292.8 86.0063 285.3 79.8063 275.3C73.8063 265.1 70.8063 252.3 70.8063 236.9H122.706C122.706 245.9 124.606 252.6 128.406 257C132.206 261.2 137.506 263.3 144.306 263.3C151.306 263.3 156.706 261 160.506 256.4C164.506 251.6 166.506 244.6 166.506 235.4ZM395.263 88.7V116.3L315.763 302H263.563L343.363 128.6H241.663V88.7H395.263Z" fill="white"/>
<defs>
<filter id="filter0_d_125_2" x="71.8063" y="94.7" width="336.457" height="228.3" filterUnits="userSpaceOnUse" color-interpolation-filters="sRGB">
<feFlood flood-opacity="0" result="BackgroundImageFix"/>
<feColorMatrix in="SourceAlpha" type="matrix" values="0 0 0 0 0 0 0 0 0 0 0 0 0 0 0 0 0 0 127 0" result="hardAlpha"/>
<feOffset/>
<feGaussianBlur stdDeviation="3"/>
<feComposite in2="hardAlpha" operator="out"/>
<feColorMatrix type="matrix" values="0 0 0 0 1 0 0 0 0 1 0 0 0 0 1 0 0 0 1 0"/>
<feBlend mode="normal" in2="BackgroundImageFix" result="effect1_dropShadow_125_2"/>
<feBlend mode="normal" in="SourceGraphic" in2="effect1_dropShadow_125_2" result="shape"/>
</filter>
</defs>
</svg>
