<svg width="69" height="863" viewBox="0 0 69 863" fill="none" xmlns="http://www.w3.org/2000/svg">
<path d="M36.2505 863H67C68.1046 863 69 862.105 69 861V829.136C69 828.538 68.7329 827.972 68.2717 827.592L46.4175 809.588C45.9563 809.208 45.6892 808.641 45.6892 808.044L45.6892 709.288C45.6892 708.82 45.8529 708.368 46.152 708.008L68.5372 681.114C68.8363 680.755 69 680.302 69 679.834V631.999C69 630.136 66.6783 629.285 65.4742 630.706L36.0315 665.448C35.6515 665.896 35.0935 666.154 34.5058 666.154H30.8352C30.2072 666.154 29.6156 665.859 29.2377 665.358L3.59746 631.321C2.44229 629.787 0 630.604 0 632.524L0 679.916C0 680.333 0.130675 680.74 0.373704 681.08L19.6736 708.042C19.9166 708.382 20.0473 708.789 20.0473 709.206L20.0473 781.382C20.0473 782.486 19.1519 783.382 18.0473 783.382H2C0.895431 783.382 0 784.277 0 785.382L0 827.353C0 827.89 0.215625 828.404 0.598413 828.78L34.8489 862.427C35.2229 862.794 35.7262 863 36.2505 863Z" fill="#4F4C6C"/>
<path d="M41.8805 584.936H66.9487C68.0731 584.936 68.9765 584.009 68.9481 582.885L68.5524 567.265C68.5404 566.791 68.3606 566.337 68.0451 565.984L35.4741 529.492C35.147 529.125 34.9662 528.651 34.9662 528.16V486.913C34.9662 485.808 35.8616 484.913 36.9662 484.913H66.5338C67.6384 484.913 68.5338 484.017 68.5338 482.913L68.5338 415.678C68.5338 415.175 68.3447 414.691 68.0042 414.322L35.4958 379.062C35.1553 378.693 34.9662 378.209 34.9662 377.707V341.279C34.9662 340.174 35.8616 339.279 36.9662 339.279H66.5338C67.6384 339.279 68.5338 338.387 68.5338 337.282V317.189C68.5338 316.726 68.3806 316.284 68.0817 315.931C60.7886 307.321 42.2284 291.501 33.1788 284.109C32.8226 283.818 32.3841 283.666 31.9242 283.666H2C0.89543 283.666 0 284.561 0 285.666L0 387.265C0 387.793 0.209269 388.301 0.582064 388.675L32.0531 420.313C32.4259 420.687 32.6351 421.195 32.6351 421.723V448.105C32.6351 449.209 31.7397 450.105 30.6351 450.105H2C0.89543 450.105 0 451 0 452.105L0 541.322C0 541.838 0.19921 542.334 0.556038 542.706L40.4365 584.32C40.8137 584.713 41.3353 584.936 41.8805 584.936Z" fill="#4F4C6C"/>
<path d="M35.8184 238.055H66.5338C67.6384 238.055 68.5338 237.16 68.5338 236.055L68.5338 56.5414C68.5338 55.9528 68.2745 55.3941 67.825 55.0141L40.5885 31.9894C39.2885 30.8904 37.2973 31.8145 37.2973 33.5168L37.2973 189.526C37.2973 191.262 35.2372 192.173 33.9523 191.006L30.0266 187.439C29.6095 187.06 29.3716 186.522 29.3716 185.959L29.3716 24.125C29.3716 23.5415 29.1169 22.9872 28.6741 22.6072L3.30248 0.834106C2.00537 -0.279053 0 0.642578 0 2.35181L0 200.842C0 201.359 0.199776 201.855 0.557506 202.228L34.3759 237.441C34.753 237.834 35.274 238.055 35.8184 238.055Z" fill="#4F4C6C"/>
</svg>
