<svg width="1059" height="74" viewBox="0 0 1059 74" fill="none" xmlns="http://www.w3.org/2000/svg">
<path d="M1 38.6637V71.0044C1 72.109 1.89543 73.0044 3 73.0044H42.8034C43.3475 73.0044 43.8681 72.7828 44.2451 72.3905L66.5985 49.1391C66.9756 48.7468 67.4962 48.5252 68.0403 48.5252H189.611C190.027 48.5252 190.433 48.6551 190.772 48.8969L224.05 72.6327C224.389 72.8745 224.795 73.0044 225.211 73.0044H284.602C286.54 73.0044 287.345 70.5248 285.777 69.3862L243.046 38.3532C242.528 37.977 242.221 37.3753 242.221 36.735V32.9687C242.221 32.2895 242.566 31.6567 243.136 31.2884L285.058 4.22608C286.734 3.14456 285.968 0.545776 283.974 0.545776H225.135C224.766 0.545776 224.404 0.64794 224.09 0.840956L190.732 21.3028C190.417 21.4958 190.055 21.598 189.686 21.598H100.567C99.4625 21.598 98.5671 20.7025 98.5671 19.598V2.54578C98.5671 1.44121 97.6716 0.545776 96.5671 0.545776H44.4047C43.9213 0.545776 43.4542 0.720853 43.09 1.03862L1.68529 37.1565C1.24988 37.5363 1 38.0859 1 38.6637Z" stroke="white"/>
<path d="M341.749 44.5748V70.9605C341.749 72.0821 342.671 72.9844 343.793 72.9601L363.65 72.529C364.074 72.5198 364.484 72.3759 364.821 72.1181L409.852 37.6761C410.2 37.4093 410.627 37.2647 411.067 37.2647H462.321C463.426 37.2647 464.321 38.1601 464.321 39.2647V70.5148C464.321 71.6194 465.216 72.5148 466.321 72.5148H549.426C549.876 72.5148 550.313 72.3631 550.666 72.0842L594.192 37.6954C594.545 37.4164 594.982 37.2647 595.432 37.2647H640.785C641.89 37.2647 642.785 38.1601 642.785 39.2647V70.5148C642.785 71.6194 643.679 72.5148 644.784 72.5148H670.1C670.511 72.5148 670.904 72.3953 671.238 72.1546C681.752 64.5775 701.289 44.9382 710.392 35.3874C710.746 35.0164 710.935 34.531 710.935 34.0184V2.54578C710.935 1.44121 710.04 0.545776 708.935 0.545776H583.707C583.232 0.545776 582.772 0.715227 582.41 1.02373L543.328 34.3388C542.966 34.6473 542.506 34.8168 542.03 34.8168H508.976C507.871 34.8168 506.976 33.9213 506.976 32.8168V2.54578C506.976 1.44121 506.081 0.545776 504.976 0.545776H394.926C394.463 0.545776 394.014 0.706377 393.657 1.00019L342.48 43.0292C342.017 43.4091 341.749 43.9762 341.749 44.5748Z" stroke="white"/>
<path d="M766.828 38.2089V70.5148C766.828 71.6194 767.723 72.5148 768.828 72.5148H989.562C990.097 72.5148 990.61 72.3004 990.986 71.9194L1019.4 43.1172C1020.65 41.8534 1019.75 39.7126 1017.98 39.7126H825.795C823.985 39.7126 823.106 37.4996 824.423 36.2576L829.007 31.9347C829.378 31.5846 829.869 31.3897 830.379 31.3897H1029.28C1029.81 31.3897 1030.32 31.1793 1030.7 30.8049L1057.58 3.961C1058.84 2.70149 1057.95 0.545776 1056.17 0.545776H812.161C811.698 0.545776 811.248 0.706875 810.89 1.00151L767.557 36.6647C767.095 37.0446 766.828 37.6111 766.828 38.2089Z" stroke="white"/>
</svg>
