<svg width="1058" height="74" viewBox="0 0 1058 74" fill="none" xmlns="http://www.w3.org/2000/svg">
<path d="M0 38.8908V71.2316C0 72.3362 0.895433 73.2316 2 73.2316H41.8034C42.3475 73.2316 42.8681 73.0099 43.2451 72.6177L65.5985 49.3662C65.9756 48.974 66.4962 48.7523 67.0403 48.7523H188.611C189.027 48.7523 189.433 48.8823 189.772 49.1241L223.05 72.8599C223.389 73.1016 223.795 73.2316 224.211 73.2316H283.602C285.54 73.2316 286.345 70.7519 284.777 69.6133L242.046 38.5804C241.528 38.2041 241.221 37.6025 241.221 36.9621V33.1959C241.221 32.5167 241.566 31.8839 242.136 31.5156L284.058 4.45325C285.734 3.37174 284.968 0.772949 282.974 0.772949H224.135C223.766 0.772949 223.404 0.875113 223.09 1.06813L189.732 21.5299C189.417 21.723 189.055 21.8251 188.686 21.8251H99.5671C98.4625 21.8251 97.5671 20.9297 97.5671 19.8251V2.77295C97.5671 1.66838 96.6716 0.772949 95.5671 0.772949H43.4047C42.9213 0.772949 42.4542 0.948026 42.09 1.26579L0.685285 37.3837C0.249876 37.7635 0 38.313 0 38.8908Z" fill="#201E35"/>
<path d="M340.749 44.802V71.1877C340.749 72.3093 341.671 73.2116 342.793 73.1872L362.65 72.7562C363.074 72.747 363.484 72.6031 363.821 72.3453L408.852 37.9033C409.2 37.6364 409.627 37.4919 410.067 37.4919H461.321C462.426 37.4919 463.321 38.3873 463.321 39.4919V70.742C463.321 71.8466 464.216 72.742 465.321 72.742H548.426C548.876 72.742 549.313 72.5903 549.666 72.3113L593.192 37.9226C593.545 37.6436 593.982 37.4919 594.432 37.4919H639.785C640.89 37.4919 641.785 38.3873 641.785 39.4919V70.742C641.785 71.8466 642.679 72.742 643.784 72.742H669.1C669.511 72.742 669.904 72.6224 670.238 72.3818C680.752 64.8047 700.289 45.1654 709.392 35.6145C709.746 35.2435 709.935 34.7582 709.935 34.2456V2.77295C709.935 1.66838 709.04 0.772949 707.935 0.772949H582.707C582.232 0.772949 581.772 0.9424 581.41 1.2509L542.328 34.566C541.966 34.8745 541.506 35.0439 541.03 35.0439H507.976C506.871 35.0439 505.976 34.1485 505.976 33.0439V2.77295C505.976 1.66838 505.081 0.772949 503.976 0.772949H393.926C393.463 0.772949 393.014 0.93355 392.657 1.22736L341.48 43.2564C341.017 43.6363 340.749 44.2034 340.749 44.802Z" fill="#201E35"/>
<path d="M765.828 38.4361V70.742C765.828 71.8466 766.723 72.742 767.828 72.742H988.562C989.097 72.742 989.61 72.5275 989.986 72.1466L1018.4 43.3443C1019.65 42.0805 1018.75 39.9398 1016.98 39.9398H824.795C822.985 39.9398 822.106 37.7268 823.423 36.4848L828.007 32.1618C828.378 31.8118 828.869 31.6168 829.379 31.6168H1028.28C1028.81 31.6168 1029.32 31.4065 1029.7 31.0321L1056.58 4.18817C1057.84 2.92866 1056.95 0.772949 1055.17 0.772949H811.161C810.698 0.772949 810.248 0.934048 809.89 1.22869L766.557 36.8918C766.095 37.2717 765.828 37.8382 765.828 38.4361Z" fill="#201E35"/>
</svg>
