<svg width="54" height="24" viewBox="0 0 54 24" fill="none" xmlns="http://www.w3.org/2000/svg">
<path d="M0.150625 3.736C0.150625 2.69067 0.577292 1.85867 1.43063 1.24C2.28396 0.599999 3.42529 0.279999 4.85463 0.279999L11.2546 16.6L10.4546 18.776L10.8066 18.936L17.6866 0.311998C19.116 0.311998 20.2573 0.631999 21.1106 1.272C21.964 1.89067 22.3906 2.72267 22.3906 3.768V23.288C19.34 23.288 17.8146 22.168 17.8146 19.928V10.776L18.9666 7.576L18.5826 7.448L13.1426 22.04C12.9933 22.4027 12.748 22.7013 12.4066 22.936C12.0653 23.1707 11.692 23.288 11.2866 23.288C10.86 23.288 10.476 23.1707 10.1346 22.936C9.79329 22.7013 9.54796 22.392 9.39863 22.008L3.95863 7.384L3.57463 7.544L4.72663 10.744V19.928C4.72663 22.168 3.20129 23.288 0.150625 23.288V3.736ZM26.5406 3.736C26.5406 2.66933 26.946 1.83733 27.7566 1.24C28.5886 0.621332 29.7513 0.311998 31.2446 0.311998V19.864C31.2446 20.952 30.8286 21.7947 29.9966 22.392C29.186 22.9893 28.034 23.288 26.5406 23.288V3.736ZM44.4566 23.288C41.47 23.288 39.102 22.776 37.3526 21.752C35.6246 20.728 34.7606 19.3093 34.7606 17.496C34.7606 16.7067 35.0593 16.0667 35.6566 15.576C36.254 15.0853 37.2566 14.84 38.6646 14.84C38.75 16.3973 39.2833 17.5813 40.2646 18.392C41.2673 19.1813 42.6646 19.576 44.4566 19.576C45.8433 19.576 46.9313 19.3413 47.7206 18.872C48.51 18.3813 48.9046 17.7093 48.9046 16.856C48.9046 16.28 48.7553 15.8107 48.4566 15.448C48.158 15.0853 47.6353 14.7547 46.8886 14.456C46.1633 14.1573 45.0966 13.848 43.6886 13.528C41.5553 13.0373 39.8806 12.4827 38.6646 11.864C37.4486 11.2453 36.5633 10.5093 36.0086 9.656C35.4753 8.80267 35.2086 7.736 35.2086 6.456C35.2086 5.24 35.5713 4.17333 36.2966 3.256C37.0433 2.31733 38.078 1.592 39.4006 1.08C40.7233 0.567998 42.2593 0.311998 44.0086 0.311998C45.6726 0.311998 47.166 0.535999 48.4886 0.983999C49.8113 1.41067 50.846 2.01867 51.5926 2.808C52.3393 3.59733 52.7126 4.504 52.7126 5.528C52.7126 6.31733 52.414 6.94667 51.8166 7.416C51.2406 7.864 50.2806 8.10933 48.9366 8.152C48.83 6.72267 48.3926 5.67733 47.6246 5.016C46.8566 4.35467 45.6513 4.024 44.0086 4.024C42.6646 4.024 41.63 4.23733 40.9046 4.664C40.1793 5.09067 39.8166 5.70933 39.8166 6.52C39.8166 7.07467 39.9553 7.53333 40.2326 7.896C40.51 8.23733 40.9793 8.54667 41.6406 8.824C42.3233 9.10133 43.294 9.37867 44.5526 9.656C46.75 10.1467 48.4886 10.712 49.7686 11.352C51.07 11.9707 52.0086 12.7173 52.5846 13.592C53.182 14.4667 53.4806 15.544 53.4806 16.824C53.4806 18.1253 53.1073 19.2667 52.3606 20.248C51.6353 21.2293 50.59 21.9867 49.2246 22.52C47.8806 23.032 46.2913 23.288 44.4566 23.288Z" fill="#E1E0EC"/>
</svg>
