<svg width="873" height="935" viewBox="0 0 873 935" fill="none" xmlns="http://www.w3.org/2000/svg">
<g filter="url(#filter0_d_61_17)">
<path d="M30.5 473.58L58.5 689.5C58.8333 690.506 61.9 693.975 63.5 696.389C82.7 723.338 134.167 739.461 157.5 744.154L249.5 746.091L872 748.605L891.5 741.566L899.5 715.421L891.5 100.008L874.5 45.7064C869.5 40.3433 857.3 29.0138 848.5 26.6004C837.5 23.5837 741 15.539 740.5 15.539C740.1 15.539 738.333 13.5279 737.5 12.5223L707.5 12.0195L705 14.0307L623 12.0195L621.5 10.5112L588 9.50558L586 12.0195L514 10.5112L511.5 8.5H474.5L472 11.5167L397 12.5223L395.5 10.5112L360 12.5223L358 15.539C326.333 18.2206 261.7 23.7848 256.5 24.5892C250 25.5948 235 30.6227 220.5 54.7566C184 116.6 141 219.168 136.5 248.833C132.9 272.565 126.333 282.185 123.5 284.028C118.667 291.402 107.2 310.777 100 329.279C91 352.407 73.9999 386.951 59 409.725C44 432.5 30.5 473.58 30.5 473.58Z" stroke="white" stroke-opacity="0.55" stroke-width="2" shape-rendering="crispEdges"/>
</g>
<path d="M262 582.182L267.5 569.612L300.5 566.093L309.5 539.445H276.5L288.5 495.199L323.5 493.188L333 467.043H295L312 420.284H325.5L333 395.144C309.5 393.804 365 391.927 775 395.144C780.6 412.038 783.333 420.954 784 423.301L796 424.306L812.5 467.043H784V495.199L823 499.724L834.5 539.445H796L803 566.093L840 569.612L847 590.729" stroke="white" stroke-opacity="0.4" stroke-width="2"/>
<path d="M86.1967 416.22C84.2724 393.897 96.941 358.679 103.516 343.86C104.478 345.279 110.347 349.062 126.127 352.846C145.852 357.575 270.935 369.399 282 372.237C277.766 374.507 268.369 402.505 264.2 416.22H238.221C234.853 419.846 224.077 431.165 207.912 447.435C180.009 447.435 119.873 437.976 103.516 435.611C87.1589 433.246 89.5644 429.936 86.1967 416.22Z" stroke="white" stroke-opacity="0.81" stroke-width="2"/>
<path d="M95 643.522C91 628.639 93.3333 608.159 95 599.779C125.333 601.288 189 605.411 201 609.835C213 614.26 232.667 632.461 241 641.008C241.333 641.846 241.8 644.226 241 647.041C240.2 649.857 235 657.6 232.5 661.12L108 655.589C105.333 655.756 99 653.578 95 643.522Z" stroke="white" stroke-opacity="0.81" stroke-width="2"/>
<path d="M47 907.735V626H49.3151C51.0514 636.706 55.45 664.726 59.1541 691.163C75.9384 720.203 137.288 736.226 170.277 743.736L216 744.646V905.923C216 924.037 201.283 932.189 193.925 934C153.98 933.698 96.5736 933.275 75.3819 934C55.1992 932.913 48.0512 916.037 47 907.735Z" stroke="white" stroke-opacity="0.81" stroke-width="2"/>
<path d="M104 326.765V338.329C136.167 344.028 214.7 356.027 271.5 358.441C328.3 360.854 476.833 361.122 544 360.955L836.5 364.474C846.833 364.809 870.5 364.575 882.5 360.955" stroke="white" stroke-opacity="0.45" stroke-width="2"/>
<path d="M1031.8 423.053C1033.77 399.863 1020.78 363.277 1014.04 347.882C1013.05 349.356 1007.03 353.287 990.849 357.217C970.621 362.13 842.347 374.413 831 377.361C835.342 379.719 844.979 408.805 849.254 423.053H875.896C879.349 426.819 890.401 438.578 906.978 455.479C935.593 455.479 997.263 445.653 1014.04 443.196C1030.81 440.74 1028.34 437.301 1031.8 423.053Z" stroke="white" stroke-opacity="0.81" stroke-width="2"/>
<path d="M275 423.301L236 555.534C233.667 558.886 234 565.087 236 569.612C238.619 575.539 274 603.802 290.5 618.886H826.5C833.7 615.265 864.833 580.506 879.5 563.579L876.5 554.026C866.833 526.037 845.7 460.809 838.5 423.804C831.3 386.798 813.833 375.871 806 375.033L558.5 367.491C485.833 368.497 333.4 370.508 305 370.508C285.4 381.77 276.833 410.396 275 423.301Z" stroke="white" stroke-opacity="0.45" stroke-width="2"/>
<path d="M492.5 47.7175C452.5 47.3153 319.5 51.5722 258 53.751H247C245.4 53.751 241.333 56.0973 239.5 57.2704C238.5 58.1084 234.4 63.2033 226 76.8792C193.2 138.42 174 202.409 168.5 226.71V238.777C168.5 253.66 185.167 256.04 193.5 255.369C232.167 254.196 354.3 250.341 533.5 244.308C712.7 238.274 835.167 250.174 874 256.877V80.3987C870.167 72.8569 861 57.7732 855 57.7732C793.5 48.723 542.5 48.2203 492.5 47.7175Z" stroke="white" stroke-opacity="0.45" stroke-width="2"/>
<path d="M1007.44 644.528C1011.44 629.645 1009.11 609.165 1007.44 600.785C977.108 602.293 913.442 606.416 901.442 610.841C889.442 615.265 869.775 633.466 861.442 642.014C861.108 642.852 860.642 645.231 861.442 648.047C862.242 650.863 867.442 658.606 869.942 662.125L994.442 656.594C997.108 656.762 1003.44 654.583 1007.44 644.528Z" stroke="white" stroke-opacity="0.81" stroke-width="2"/>
<path d="M230.5 744.583L256 697.32L262.5 678.214C263.5 676.203 267.1 671.98 273.5 671.175C279.9 670.371 652.833 670.84 838.5 671.175C841.667 673.019 848.3 677.913 849.5 682.739C850.7 687.566 867.333 725.979 875.5 744.583V748.102" stroke="white" stroke-opacity="0.81" stroke-width="2"/>
<path d="M136.5 247.325H114.5L111.5 241.794C114.167 225.537 119 191.515 117 185.482C115 179.448 112.5 178.945 111.5 179.448C84.3334 179.448 27.4 181.459 17 189.504C6.60002 197.548 5.33335 211.291 6.00002 217.157C38.5 221.85 104 232.04 106 235.258" stroke="white" stroke-opacity="0.81" stroke-width="2"/>
<path d="M8 219.168V225.202L44 233.247C44.5 234.085 45.5 236.867 45.5 241.291C56.3 241.291 91.6667 241.962 108 242.297" stroke="white" stroke-opacity="0.81" stroke-width="2"/>
<path d="M6 226.71C4.5 227.045 1.5 228.118 1.5 229.727C1.5 231.336 1.5 243.135 1.5 248.833C4.16667 254.866 12 268.039 22 272.464C33.2 274.073 95.6667 278.833 125.5 281.011" stroke="white" stroke-opacity="0.81" stroke-width="2"/>
<path d="M106.5 378.05V400.675V402.184C106.5 407.413 112.833 410.061 116 410.731C125 411.904 145.1 414.251 153.5 414.251C159.9 412.642 162.5 400.172 163 394.139C163.167 391.122 163.4 383.681 163 378.05C162.6 372.419 155.5 370.005 152 369.502C141.5 368.832 119.6 367.491 116 367.491C112.4 367.491 108.167 374.53 106.5 378.05Z" stroke="white" stroke-opacity="0.81" stroke-width="2"/>
<g filter="url(#filter1_d_61_17)">
<path d="M228.5 420.284C217.833 419.111 195 416.764 189 416.764C183.343 416.764 180.204 412.294 179.166 409.676C179.047 409.378 179 409.062 179 408.742C179 405.119 179 397.151 179 390.619C179 384.433 184.456 377.507 187.964 374.009C188.605 373.369 189.514 373.102 190.408 373.242C208.015 375.996 241.385 381.289 244.5 382.072C247.517 382.83 249.882 387.522 250.841 390.163C250.951 390.465 251 390.783 251 391.104V409.223M242.5 398.161L186.589 394.284C185.413 394.202 184.5 393.224 184.5 392.045V392.045C184.5 390.735 185.617 389.703 186.923 389.808L241 394.139" stroke="#FFB5B5" stroke-width="3" stroke-linecap="round"/>
</g>
<path d="M216.5 432.351C176.833 427.49 96.5 418.071 92.5 419.278" stroke="white" stroke-opacity="0.81" stroke-width="2"/>
<g filter="url(#filter2_d_61_17)">
<ellipse cx="134.5" cy="390.619" rx="15.5" ry="15.5864" fill="url(#paint0_radial_61_17)" shape-rendering="crispEdges"/>
<path d="M149 390.619C149 398.681 142.503 405.206 134.5 405.206C126.497 405.206 120 398.681 120 390.619C120 382.558 126.497 376.033 134.5 376.033C142.503 376.033 149 382.558 149 390.619Z" stroke="white" stroke-width="2" shape-rendering="crispEdges"/>
</g>
<path d="M358 463.021H317H300.5L314.5 423.803L793.5 428.329L805.5 463.021H780H755M358 463.021L368 438.384H745L755 463.021M358 463.021H755" stroke="white" stroke-opacity="0.4" stroke-width="2"/>
<path d="M343.545 535.925H298.884H281L291.5 498.216L820 502.238L829.5 535.925H803.223H775.991M343.545 535.925L354.438 511.289H765.098L775.991 535.925M343.545 535.925H775.991" stroke="white" stroke-opacity="0.4" stroke-width="2"/>
<path d="M328.707 609.332H287L271 594.752V573.132L836.868 576.095V600.282L818.975 609.332H789.93M328.707 609.332L340.324 585.024H778.313L789.93 609.332M328.707 609.332H789.93" stroke="white" stroke-opacity="0.4" stroke-width="2"/>
<path d="M1019 891.271V626.427H1017C1015.5 637.118 1011.7 665.1 1008.5 691.5C994 720.5 941 736.5 912.5 744L873 744.909V889.462C873 907.551 885.714 915.691 892.071 917.5C926.579 917.199 976.173 916.776 994.481 917.5C1011.92 916.415 1018.09 899.562 1019 891.271Z" fill="#27243A" stroke="white" stroke-opacity="0.81" stroke-width="2"/>
<g filter="url(#filter3_d_61_17)">
<path fill-rule="evenodd" clip-rule="evenodd" d="M416 405V466C416.333 467 417.3 469 418.5 469H436.5C437.5 469.167 439.5 469 439.5 467V446.5H446.5L471 469H498V467.5V462.5L469 439V435L496.5 410.5V403.5H471L446.5 427H439.5V403.5H416V405ZM511 468.5V403.5H532L554 440.5H558.5L581.5 403.5H603.5V468.5H581.5V447H579L565 468.5H548.5L534.5 447H532V468.5H511ZM692.5 403.5H630C625.833 407 617.5 415 617.5 419V456.5C619.833 460.5 625.6 468.5 630 468.5H692.5V450H640V424.5H692.5V403.5Z" fill="#D9D9D9" shape-rendering="crispEdges"/>
<path d="M416 466H415V466.162L415.051 466.316L416 466ZM436.5 469L436.664 468.014L436.583 468H436.5V469ZM439.5 446.5V445.5H438.5V446.5H439.5ZM446.5 446.5L447.176 445.763L446.89 445.5H446.5V446.5ZM471 469L470.324 469.737L470.61 470H471V469ZM498 469V470H499V469H498ZM498 462.5H499V462.023L498.63 461.723L498 462.5ZM469 439H468V439.477L468.37 439.777L469 439ZM469 435L468.335 434.253L468 434.552V435H469ZM496.5 410.5L497.165 411.247L497.5 410.948V410.5H496.5ZM496.5 403.5H497.5V402.5H496.5V403.5ZM471 403.5V402.5H470.598L470.308 402.778L471 403.5ZM446.5 427V428H446.902L447.192 427.722L446.5 427ZM439.5 427H438.5V428H439.5V427ZM439.5 403.5H440.5V402.5H439.5V403.5ZM416 403.5V402.5H415V403.5H416ZM511 403.5V402.5H510V403.5H511ZM511 468.5H510V469.5H511V468.5ZM532 403.5L532.86 402.989L532.569 402.5H532V403.5ZM554 440.5L553.14 441.011L553.431 441.5H554V440.5ZM558.5 440.5V441.5H559.056L559.349 441.028L558.5 440.5ZM581.5 403.5V402.5H580.944L580.651 402.972L581.5 403.5ZM603.5 403.5H604.5V402.5H603.5V403.5ZM603.5 468.5V469.5H604.5V468.5H603.5ZM581.5 468.5H580.5V469.5H581.5V468.5ZM581.5 447H582.5V446H581.5V447ZM579 447V446H578.458L578.162 446.454L579 447ZM565 468.5V469.5H565.542L565.838 469.046L565 468.5ZM548.5 468.5L547.662 469.046L547.958 469.5H548.5V468.5ZM534.5 447L535.338 446.454L535.042 446H534.5V447ZM532 447V446H531V447H532ZM532 468.5V469.5H533V468.5H532ZM630 403.5V402.5H629.636L629.357 402.734L630 403.5ZM692.5 403.5H693.5V402.5H692.5V403.5ZM617.5 456.5H616.5V456.77L616.636 457.004L617.5 456.5ZM692.5 468.5V469.5H693.5V468.5H692.5ZM692.5 450H693.5V449H692.5V450ZM640 450H639V451H640V450ZM640 424.5V423.5H639V424.5H640ZM692.5 424.5V425.5H693.5V424.5H692.5ZM417 466V405H415V466H417ZM418.5 468C418.488 468 418.412 467.996 418.259 467.879C418.105 467.76 417.929 467.568 417.747 467.305C417.382 466.778 417.094 466.12 416.949 465.684L415.051 466.316C415.239 466.88 415.602 467.722 416.103 468.445C416.354 468.807 416.666 469.177 417.041 469.465C417.417 469.754 417.912 470 418.5 470V468ZM436.5 468H418.5V470H436.5V468ZM438.5 467C438.5 467.326 438.421 467.507 438.349 467.612C438.273 467.721 438.156 467.818 437.977 467.895C437.588 468.064 437.05 468.078 436.664 468.014L436.336 469.986C436.95 470.089 437.912 470.103 438.773 469.73C439.219 469.537 439.664 469.227 439.995 468.748C440.329 468.264 440.5 467.674 440.5 467H438.5ZM438.5 446.5V467H440.5V446.5H438.5ZM446.5 445.5H439.5V447.5H446.5V445.5ZM471.676 468.263L447.176 445.763L445.824 447.237L470.324 469.737L471.676 468.263ZM498 468H471V470H498V468ZM497 467.5V469H499V467.5H497ZM497 462.5V467.5H499V462.5H497ZM468.37 439.777L497.37 463.277L498.63 461.723L469.63 438.223L468.37 439.777ZM468 435V439H470V435H468ZM495.835 409.753L468.335 434.253L469.665 435.747L497.165 411.247L495.835 409.753ZM495.5 403.5V410.5H497.5V403.5H495.5ZM471 404.5H496.5V402.5H471V404.5ZM447.192 427.722L471.692 404.222L470.308 402.778L445.808 426.278L447.192 427.722ZM439.5 428H446.5V426H439.5V428ZM438.5 403.5V427H440.5V403.5H438.5ZM416 404.5H439.5V402.5H416V404.5ZM417 405V403.5H415V405H417ZM510 403.5V468.5H512V403.5H510ZM532 402.5H511V404.5H532V402.5ZM554.86 439.989L532.86 402.989L531.14 404.011L553.14 441.011L554.86 439.989ZM558.5 439.5H554V441.5H558.5V439.5ZM580.651 402.972L557.651 439.972L559.349 441.028L582.349 404.028L580.651 402.972ZM603.5 402.5H581.5V404.5H603.5V402.5ZM604.5 468.5V403.5H602.5V468.5H604.5ZM581.5 469.5H603.5V467.5H581.5V469.5ZM580.5 447V468.5H582.5V447H580.5ZM579 448H581.5V446H579V448ZM565.838 469.046L579.838 447.546L578.162 446.454L564.162 467.954L565.838 469.046ZM548.5 469.5H565V467.5H548.5V469.5ZM533.662 447.546L547.662 469.046L549.338 467.954L535.338 446.454L533.662 447.546ZM532 448H534.5V446H532V448ZM533 468.5V447H531V468.5H533ZM511 469.5H532V467.5H511V469.5ZM630 404.5H692.5V402.5H630V404.5ZM618.5 419C618.5 418.294 618.89 417.245 619.717 415.909C620.522 414.61 621.653 413.173 622.936 411.726C625.499 408.834 628.586 405.993 630.643 404.266L629.357 402.734C627.247 404.507 624.084 407.416 621.439 410.399C620.118 411.89 618.905 413.422 618.017 414.856C617.151 416.255 616.5 417.706 616.5 419H618.5ZM618.5 456.5V419H616.5V456.5H618.5ZM630 467.5C629.189 467.5 628.204 467.123 627.081 466.36C625.973 465.608 624.826 464.544 623.713 463.326C621.489 460.891 619.505 457.952 618.364 455.996L616.636 457.004C617.829 459.048 619.894 462.109 622.237 464.674C623.408 465.956 624.673 467.142 625.957 468.015C627.226 468.877 628.611 469.5 630 469.5V467.5ZM692.5 467.5H630V469.5H692.5V467.5ZM691.5 450V468.5H693.5V450H691.5ZM640 451H692.5V449H640V451ZM639 424.5V450H641V424.5H639ZM692.5 423.5H640V425.5H692.5V423.5ZM691.5 403.5V424.5H693.5V403.5H691.5Z" fill="white" fill-opacity="0.4"/>
</g>
<defs>
<filter id="filter0_d_61_17" x="22.4791" y="0.5" width="885.023" height="756.105" filterUnits="userSpaceOnUse" color-interpolation-filters="sRGB">
<feFlood flood-opacity="0" result="BackgroundImageFix"/>
<feColorMatrix in="SourceAlpha" type="matrix" values="0 0 0 0 0 0 0 0 0 0 0 0 0 0 0 0 0 0 127 0" result="hardAlpha"/>
<feOffset/>
<feGaussianBlur stdDeviation="3.5"/>
<feComposite in2="hardAlpha" operator="out"/>
<feColorMatrix type="matrix" values="0 0 0 0 1 0 0 0 0 1 0 0 0 0 1 0 0 0 1 0"/>
<feBlend mode="normal" in2="BackgroundImageFix" result="effect1_dropShadow_61_17"/>
<feBlend mode="normal" in="SourceGraphic" in2="effect1_dropShadow_61_17" result="shape"/>
</filter>
<filter id="filter1_d_61_17" x="173.5" y="367.706" width="83" height="58.0781" filterUnits="userSpaceOnUse" color-interpolation-filters="sRGB">
<feFlood flood-opacity="0" result="BackgroundImageFix"/>
<feColorMatrix in="SourceAlpha" type="matrix" values="0 0 0 0 0 0 0 0 0 0 0 0 0 0 0 0 0 0 127 0" result="hardAlpha"/>
<feOffset/>
<feGaussianBlur stdDeviation="2"/>
<feComposite in2="hardAlpha" operator="out"/>
<feColorMatrix type="matrix" values="0 0 0 0 1 0 0 0 0 0.725 0 0 0 0 0.6875 0 0 0 0.72 0"/>
<feBlend mode="normal" in2="BackgroundImageFix" result="effect1_dropShadow_61_17"/>
<feBlend mode="normal" in="SourceGraphic" in2="effect1_dropShadow_61_17" result="shape"/>
</filter>
<filter id="filter2_d_61_17" x="97" y="353.033" width="75" height="75.1729" filterUnits="userSpaceOnUse" color-interpolation-filters="sRGB">
<feFlood flood-opacity="0" result="BackgroundImageFix"/>
<feColorMatrix in="SourceAlpha" type="matrix" values="0 0 0 0 0 0 0 0 0 0 0 0 0 0 0 0 0 0 127 0" result="hardAlpha"/>
<feOffset/>
<feGaussianBlur stdDeviation="11"/>
<feComposite in2="hardAlpha" operator="out"/>
<feColorMatrix type="matrix" values="0 0 0 0 1 0 0 0 0 1 0 0 0 0 1 0 0 0 1 0"/>
<feBlend mode="normal" in2="BackgroundImageFix" result="effect1_dropShadow_61_17"/>
<feBlend mode="normal" in="SourceGraphic" in2="effect1_dropShadow_61_17" result="shape"/>
</filter>
<filter id="filter3_d_61_17" x="407" y="394.5" width="294.5" height="83.5488" filterUnits="userSpaceOnUse" color-interpolation-filters="sRGB">
<feFlood flood-opacity="0" result="BackgroundImageFix"/>
<feColorMatrix in="SourceAlpha" type="matrix" values="0 0 0 0 0 0 0 0 0 0 0 0 0 0 0 0 0 0 127 0" result="hardAlpha"/>
<feOffset/>
<feGaussianBlur stdDeviation="4"/>
<feComposite in2="hardAlpha" operator="out"/>
<feColorMatrix type="matrix" values="0 0 0 0 1 0 0 0 0 1 0 0 0 0 1 0 0 0 0.76 0"/>
<feBlend mode="normal" in2="BackgroundImageFix" result="effect1_dropShadow_61_17"/>
<feBlend mode="normal" in="SourceGraphic" in2="effect1_dropShadow_61_17" result="shape"/>
</filter>
<radialGradient id="paint0_radial_61_17" cx="0" cy="0" r="1" gradientUnits="userSpaceOnUse" gradientTransform="translate(134.5 390.619) rotate(90) scale(15.5864 15.5)">
<stop offset="0.453125" stop-color="white" stop-opacity="0"/>
<stop offset="0.713542" stop-color="white"/>
</radialGradient>
</defs>
</svg>
