<svg width="42" height="67" viewBox="0 0 42 67" fill="none" xmlns="http://www.w3.org/2000/svg">
<g id="Wrench_1_">
<g id="Group">
<g id="Group_2">
<path id="Vector" d="M32.518 1H32.3637C30.0962 1 28.2514 2.84481 28.2514 5.11225V43.9933C28.2514 46.4755 27.3526 48.9483 25.7206 50.9562C24.4001 52.5814 23.6729 54.6314 23.6729 56.7291C23.6729 61.7793 27.7813 65.8878 32.8315 65.8878H34.1522L30.8243 59.0817L31.5113 56.8195H34.7522L37.5476 63.342L38.3931 62.6673C38.5125 62.5722 39.5811 61.6745 40.3719 59.4892C40.41 59.3841 40.4462 59.2787 40.4811 59.1726C41.6268 55.6807 40.8443 51.7092 38.4388 48.8078C37.641 47.8455 37.089 46.7152 36.8421 45.539C36.7015 44.8689 36.6301 44.1818 36.6301 43.497V5.11225C36.6302 2.84481 34.7855 1 32.518 1ZM29.9002 13.6658H31.6584V39.9067H33.3072V13.6658H34.9815V43.497C34.9815 43.96 35.0129 44.4235 35.0683 44.884H29.8643C29.8863 44.5878 29.9003 44.2908 29.9003 43.9934V13.6658H29.9002ZM34.9815 12.0171H29.9003V11.4103H34.9815V12.0171ZM32.3637 2.64875H32.518C33.8764 2.64875 34.9815 3.75382 34.9815 5.11225V9.76145H29.9003V5.11225C29.9002 3.75382 31.0052 2.64875 32.3637 2.64875ZM37.1696 49.86C39.2166 52.329 39.8854 55.7004 38.9147 58.6584C38.8852 58.7484 38.8544 58.8381 38.8218 58.9278C38.5902 59.5678 38.3328 60.0678 38.0995 60.4442L35.8395 55.1706H30.2889L29.0585 59.2232L31.4485 64.1112C27.9658 63.4602 25.3217 60.3975 25.3217 56.7289C25.3217 55.0087 25.9178 53.3281 27.0003 51.996C28.3128 50.3814 29.2093 48.4997 29.6285 46.5326H35.3941C35.7439 47.7316 36.3497 48.8711 37.1696 49.86Z" fill="black" stroke="#E1E0EC" stroke-width="0.5"/>
<path id="Vector_2" d="M32.4829 7.30749C33.6888 7.30749 34.6699 6.32635 34.6699 5.12043C34.6699 3.91437 33.6888 2.93323 32.4829 2.93323C31.2768 2.93323 30.2955 3.91437 30.2955 5.12043C30.2955 6.32635 31.2768 7.30749 32.4829 7.30749ZM32.4829 4.58198C32.7796 4.58198 33.0212 4.82338 33.0212 5.12043C33.0212 5.41734 32.7796 5.65874 32.4829 5.65874C32.1858 5.65874 31.9443 5.4172 31.9443 5.12043C31.9443 4.82338 32.1858 4.58198 32.4829 4.58198Z" fill="black" stroke="#E1E0EC" stroke-width="0.5"/>
<path id="Vector_3" d="M33.3073 41.5548H31.6586V44.2439H33.3073V41.5548Z" fill="black" stroke="#E1E0EC" stroke-width="0.5"/>
</g>
<g id="Group_3">
<path id="Vector_4" d="M11.8748 59.5802C10.6688 59.5802 9.68762 60.5613 9.68762 61.7674C9.68762 62.9735 10.6688 63.9546 11.8748 63.9546C13.0809 63.9546 14.062 62.9735 14.062 61.7674C14.062 60.5613 13.0809 59.5802 11.8748 59.5802ZM11.8748 62.3057C11.5779 62.3057 11.3364 62.0642 11.3364 61.7673C11.3364 61.4704 11.5779 61.2288 11.8748 61.2288C12.1717 61.2288 12.4133 61.4704 12.4133 61.7673C12.4133 62.0642 12.1719 62.3057 11.8748 62.3057Z" fill="black" stroke="#E1E0EC" stroke-width="0.5"/>
<path id="Vector_5" d="M19.2967 14.9413C20.1775 13.5051 20.643 11.8514 20.643 10.1588C20.643 5.10854 16.5345 1 11.4842 1H10.1636L13.4913 7.80617L12.8045 10.0683H9.56346L6.76801 3.5458L5.92234 4.22069C5.80459 4.31467 3.15684 6.50462 3.10944 12.5783H1V16.4398L1.73108 16.8611C2.32422 17.2006 2.88795 17.5912 3.40827 18.0235C3.53399 18.1273 3.65874 18.235 3.77842 18.3426C6.26157 20.5825 7.68567 23.785 7.68567 27.1291V61.7753C7.68567 64.0429 9.53062 65.8878 11.7982 65.8878H11.9518C14.2195 65.8878 16.0643 64.0429 16.0643 61.7753V28.4369V26.5412C16.0645 22.3999 17.182 18.3888 19.2967 14.9413ZM6.21829 6.44829L8.0168 10.6448L5.63133 12.5783H4.75722C4.78456 9.3979 5.5908 7.46955 6.21829 6.44829ZM4.88184 17.1175C4.74444 16.994 4.60224 16.8713 4.46072 16.7542C3.89712 16.286 3.28764 15.8598 2.64889 15.4871V14.2271H6.2154L9.31216 11.717H14.027L15.2574 7.66451L12.8674 2.77639C16.35 3.42737 18.9943 6.49006 18.9943 10.1588C18.9943 11.547 18.6129 12.9026 17.8911 14.0792C15.6175 17.7862 14.4157 22.0955 14.4156 26.541V28.4371V53.2222H12.6992V26.9811H11.0505V53.2222H9.33442V27.1292C9.33456 23.3191 7.71191 19.6703 4.88184 17.1175ZM9.33456 54.8709H14.4157V55.4775H9.33456V54.8709ZM11.9519 64.2391H11.7983C10.4398 64.2391 9.33456 63.1337 9.33456 61.7753V57.1263H14.4157V61.7753C14.4157 63.1337 13.3104 64.2391 11.9519 64.2391Z" fill="black" stroke="#E1E0EC" stroke-width="0.5"/>
<path id="Vector_6" d="M14.3984 13.5394H7.70789V18.3067H14.3984V13.5394ZM9.35663 15.1881H10.2288V16.658H9.35663V15.1881ZM12.7496 16.658H11.8776V15.1881H12.7496V16.658Z" fill="black" stroke="#E1E0EC" stroke-width="0.5"/>
<path id="Vector_7" d="M12.6993 22.6439H11.0505V25.3332H12.6993V22.6439Z" fill="black" stroke="#E1E0EC" stroke-width="0.5"/>
</g>
</g>
</g>
</svg>
